<svg width="23" height="20" viewBox="0 0 23 20" fill="none" xmlns="http://www.w3.org/2000/svg">
<path d="M2.125 11.7702H13.9583C14.488 11.7707 15.0028 11.5948 15.4215 11.2704C15.8402 10.946 16.139 10.4915 16.2708 9.97852L18.2083 2.29102C18.2772 2.03135 18.43 1.80171 18.6428 1.63782C18.8557 1.47393 19.1168 1.38497 19.3854 1.38477H21.7917" stroke="white" stroke-linecap="round" stroke-linejoin="round"/>
<path d="M13.4375 11.9375L15.4479 18.4479" stroke="white" stroke-linecap="round" stroke-linejoin="round"/>
<path d="M2.12517 1.38476H13.5835C13.7397 1.3816 13.8947 1.41362 14.0368 1.47847C14.179 1.54331 14.3048 1.63931 14.4048 1.75936C14.5049 1.8794 14.5766 2.02041 14.6148 2.17195C14.6529 2.32349 14.6565 2.48166 14.6252 2.63476L13.5106 8.02018C13.4619 8.25901 13.331 8.47319 13.1406 8.62546C12.9503 8.77773 12.7126 8.85842 12.4689 8.85351H3.48975C3.2416 8.85712 3.0003 8.772 2.80933 8.6135C2.61836 8.45499 2.49025 8.2335 2.44809 7.98893L1.40642 2.14518C1.38973 2.0452 1.39642 1.94271 1.42598 1.84574C1.45554 1.74878 1.50716 1.65999 1.57679 1.58632C1.64642 1.51265 1.73217 1.45612 1.82731 1.42115C1.92246 1.38618 2.02441 1.37372 2.12517 1.38476V1.38476Z" stroke="white" stroke-linecap="round" stroke-linejoin="round"/>
<path d="M7.12484 16.0631C7.12484 14.6249 5.95891 13.459 4.52067 13.459C3.08243 13.459 1.9165 14.6249 1.9165 16.0631C1.9165 17.5014 3.08243 18.6673 4.52067 18.6673C5.95891 18.6673 7.12484 17.5014 7.12484 16.0631Z" stroke="white" stroke-linecap="round" stroke-linejoin="bevel"/>
</svg>
