<svg  viewBox="0 0 334 126" fill="none" xmlns="http://www.w3.org/2000/svg">
<rect  fill=""/>
<path stroke-width="0.5" d="M1 -79C1 -87.0945 8.82475 -93.7854 18.4786 -93.7854M18.4786 -93.7854C85.4518 -93.7854 123.001 -93.7853 189.974 -93.7853M18.4786 -93.7854L189.974 -93.7853M189.974 -93.7853L203.004 -110L316.116 -108.236C325.22 -107.779 332.903 -101.096 333.595 -93.58V-79M1 126V0M-1.11377 280.844C-1.11377 288.938 6.71324 295.5 16.3651 295.5H314C323.654 295.5 331.479 288.938 331.481 280.844M333 126V0M316.114 -168.9H18.4786C8.8268 -168.9 0.999786 -175.462 0.999786 -183.556L0.999817 -311.129C0.999817 -319.223 8.82478 -325.785 18.4786 -325.785L189.974 -325.785L203.004 -342L316.116 -340.236C325.768 -340.236 333.595 -333.674 333.595 -325.58V-183.556C333.592 -175.462 325.767 -168.9 316.114 -168.9Z" stroke="#34CEA5" />
<path d="M1 0H333V126H1V0Z" fill="white" fill-opacity="0.1"/>
</svg>
