<svg  viewBox="0 0 662 242" fill="none" xmlns="http://www.w3.org/2000/svg">
<rect width="662" height="242"/>
<path d="M626.811 273H36.1849C17.0319 273 1.5 259.978 1.5 243.915V-9.23964C1.5 -25.3024 17.0278 -38.3238 36.1849 -38.3238L376.5 -38.3235L402.357 -70.5H630.5C649.653 -70.5 661.5 -53.9789 661.5 -37.9161V243.915C661.496 259.978 645.968 273 626.811 273Z" stroke="url(#paint0_linear)" stroke-miterlimit="10"/>
<path d="M0.103843 -4.06243C0.0465464 -21.7759 14.3901 -36.1659 32.1037 -36.1659H359.796C370.262 -36.1659 380.041 -41.3052 386.207 -49.7617C393.995 -60.4416 401.339 -70 402.04 -70H628.011C631.317 -70 634.603 -69.4877 637.752 -68.4812L641.474 -67.292C643.475 -66.6522 645.348 -65.6633 647.006 -64.371C648.026 -63.5757 648.956 -62.6717 649.78 -61.675L654.66 -55.774C659.404 -50.037 662 -42.8254 662 -35.3808V244C662 261.673 647.673 276 630 276H32.5C14.8269 276 0.5 261.673 0.5 244V118.411L0.103843 -4.06243Z" fill="#C4C4C4" fill-opacity="0.1"/>
<defs>
<linearGradient id="paint0_linear" x1="331.5" y1="-70.5" x2="331.5" y2="273" gradientUnits="userSpaceOnUse">
<stop stop-color="#7AF0D1"/>
<stop offset="1" stop-color="white"/>
</linearGradient>
</defs>
</svg>
