<svg  viewBox="0 0 334 32" fill="none" xmlns="http://www.w3.org/2000/svg">
<path d="M1 32C1 23.9055 8.82475 17.2146 18.4786 17.2146M18.4786 17.2146C85.4518 17.2146 123.001 17.2147 189.974 17.2147M18.4786 17.2146L189.974 17.2147M189.974 17.2147L203.004 1L316.116 2.76363C325.22 3.22142 332.903 9.90439 333.595 17.42V32M1 237V111M-1.11377 391.844C-1.11377 399.938 6.71324 406.5 16.3651 406.5H314C323.654 406.5 331.479 399.938 331.481 391.844M333 237V111M316.114 -57.8997H18.4786C8.8268 -57.8997 0.999786 -64.4617 0.999786 -72.5562L0.999817 -200.129C0.999817 -208.223 8.82478 -214.785 18.4786 -214.785L189.974 -214.785L203.004 -231L316.116 -229.236C325.768 -229.236 333.595 -222.674 333.595 -214.58V-72.5562C333.592 -64.4617 325.767 -57.8997 316.114 -57.8997Z" stroke="#34CEA5" stroke-miterlimit="10"/>
<path d="M4.00451 24C3.20331 24.4 1.66767 29.5 1 32H333.499L334 22.5C333.833 20.6667 333.499 16.8 333.499 16C333.499 15 330.995 10.5 330.495 9.5C329.994 8.5 328.573 8.44222 327.49 7C325.988 5 321.481 4.16667 319.478 3.5L315.973 3H311.967L299.448 2.5H272.408L243.364 2L217.826 1.5L203.805 1L202.803 1.5L190.284 17.5H125.687H84.6256H41.0602C38.5564 17.5 19.5278 17 14.5203 17.5C9.51278 18 5.00601 23.5 4.00451 24Z" fill="white" fill-opacity="0.1"/>
</svg>
