<svg  viewBox="0 0 808 58" fill="none" xmlns="http://www.w3.org/2000/svg">
<path d="M143.597 56.0039H13.4034C6.55249 56.0039 1 49.1064 1 40.5958V16.412C1 7.90146 6.55249 1.00391 13.4034 1.00391H143.597C150.448 1.00391 156 7.90146 156 16.412V40.5958C156 49.1064 150.448 56.0039 143.597 56.0039Z" stroke="url(#paint0_linear)" stroke-width="2" stroke-miterlimit="10"/>
<path d="M806.64 9.71973L769.49 49.6004" stroke="url(#paint1_linear)" stroke-width="2" stroke-miterlimit="10"/>
<path d="M788.909 9.72852L751.759 49.6092" stroke="url(#paint2_linear)" stroke-width="2" stroke-miterlimit="10"/>
<path d="M771.179 9.72852L734.029 49.6179" stroke="url(#paint3_linear)" stroke-width="2" stroke-miterlimit="10"/>
<path d="M753.457 9.7373L716.298 49.618" stroke="url(#paint4_linear)" stroke-width="2" stroke-miterlimit="10"/>
<path d="M735.726 9.74609L698.567 49.6267" stroke="url(#paint5_linear)" stroke-width="2" stroke-miterlimit="10"/>
<path d="M717.996 9.75488L680.846 49.6355" stroke="url(#paint6_linear)" stroke-width="2" stroke-miterlimit="10"/>
<path d="M700.265 9.76367L663.115 49.6443" stroke="url(#paint7_linear)" stroke-width="2" stroke-miterlimit="10"/>
<path d="M682.544 9.77148L645.385 49.6521" stroke="url(#paint8_linear)" stroke-width="2" stroke-miterlimit="10"/>
<path d="M664.813 9.78125L627.654 49.6619" stroke="url(#paint9_linear)" stroke-width="2" stroke-miterlimit="10"/>
<path d="M647.082 9.78125L609.923 49.6706" stroke="url(#paint10_linear)" stroke-width="2" stroke-miterlimit="10"/>
<path d="M629.352 9.79004L592.202 49.6794" stroke="url(#paint11_linear)" stroke-width="2" stroke-miterlimit="10"/>
<path d="M611.621 9.79883L574.471 49.6795" stroke="url(#paint12_linear)" stroke-width="2" stroke-miterlimit="10"/>
<path d="M593.9 9.80664L556.741 49.6873" stroke="url(#paint13_linear)" stroke-width="2" stroke-miterlimit="10"/>
<path d="M576.169 9.81641L539.01 49.6971" stroke="url(#paint14_linear)" stroke-width="2" stroke-miterlimit="10"/>
<path d="M558.438 9.8252L521.288 49.7058" stroke="url(#paint15_linear)" stroke-width="2" stroke-miterlimit="10"/>
<path d="M540.708 9.83301L503.558 49.7137" stroke="url(#paint16_linear)" stroke-width="2" stroke-miterlimit="10"/>
<path d="M522.977 9.83301L485.827 49.7224" stroke="url(#paint17_linear)" stroke-width="2" stroke-miterlimit="10"/>
<path d="M505.256 9.8418L468.097 49.7312" stroke="url(#paint18_linear)" stroke-width="2" stroke-miterlimit="10"/>
<path d="M487.525 9.85156L450.366 49.7322" stroke="url(#paint19_linear)" stroke-width="2" stroke-miterlimit="10"/>
<path d="M469.794 9.86035L432.644 49.741" stroke="url(#paint20_linear)" stroke-width="2" stroke-miterlimit="10"/>
<path d="M452.064 9.86816L414.914 49.7488" stroke="url(#paint21_linear)" stroke-width="2" stroke-miterlimit="10"/>
<path d="M434.342 9.87695L397.183 49.7576" stroke="url(#paint22_linear)" stroke-width="2" stroke-miterlimit="10"/>
<path d="M416.611 9.88672L379.452 49.7674" stroke="url(#paint23_linear)" stroke-width="2" stroke-miterlimit="10"/>
<path d="M398.881 9.88672L361.722 49.7761" stroke="url(#paint24_linear)" stroke-width="2" stroke-miterlimit="10"/>
<path d="M381.15 9.89453L344 49.7839" stroke="url(#paint25_linear)" stroke-width="2" stroke-miterlimit="10"/>
<path d="M365.525 10.0039L328.366 49.8846" stroke="url(#paint26_linear)" stroke-width="2" stroke-miterlimit="10"/>
<path d="M347.794 10.0127L310.644 49.8933" stroke="url(#paint27_linear)" stroke-width="2" stroke-miterlimit="10"/>
<path d="M330.064 10.0205L292.914 49.9011" stroke="url(#paint28_linear)" stroke-width="2" stroke-miterlimit="10"/>
<path d="M312.342 10.0293L275.183 49.9099" stroke="url(#paint29_linear)" stroke-width="2" stroke-miterlimit="10"/>
<path d="M294.611 10.0391L257.452 49.9197" stroke="url(#paint30_linear)" stroke-width="2" stroke-miterlimit="10"/>
<path d="M276.881 10.0391L239.722 49.9285" stroke="url(#paint31_linear)" stroke-width="2" stroke-miterlimit="10"/>
<path d="M259.15 10.0469L222 49.9363" stroke="url(#paint32_linear)" stroke-width="2" stroke-miterlimit="10"/>
<path d="M15.6352 30.7139H19.4572C19.5225 30.9099 19.7139 31.0779 20.0312 31.2179C20.3485 31.3486 20.7732 31.4512 21.3052 31.5259C21.8465 31.5912 22.4719 31.6239 23.1812 31.6239C23.8812 31.6239 24.4319 31.6052 24.8332 31.5679C25.2439 31.5212 25.5332 31.4466 25.7012 31.3439C25.8692 31.2319 25.9532 31.0826 25.9532 30.8959C25.9532 30.7186 25.8179 30.5832 25.5472 30.4899C25.2765 30.3872 24.7959 30.3172 24.1052 30.2799C23.4145 30.2426 22.4439 30.2239 21.1932 30.2239C20.2599 30.2239 19.4525 30.1819 18.7712 30.0979C18.0992 30.0046 17.5439 29.8646 17.1052 29.6779C16.6759 29.4819 16.3585 29.2392 16.1532 28.9499C15.9479 28.6512 15.8452 28.2966 15.8452 27.8859C15.8452 27.1766 16.0832 26.5932 16.5592 26.1359C17.0445 25.6692 17.7725 25.3239 18.7432 25.0999C19.7232 24.8666 20.9459 24.7499 22.4112 24.7499C24.5579 24.7499 26.1959 25.0626 27.3252 25.6879C28.4639 26.3039 29.0332 27.1952 29.0332 28.3619H25.4072C25.3605 28.0539 25.0712 27.8206 24.5392 27.6619C24.0072 27.4939 23.2512 27.4099 22.2712 27.4099C21.3005 27.4099 20.5772 27.4659 20.1012 27.5779C19.6345 27.6899 19.4012 27.8812 19.4012 28.1519C19.4012 28.2919 19.4665 28.4039 19.5972 28.4879C19.7279 28.5719 19.9519 28.6419 20.2692 28.6979C20.5959 28.7446 21.0532 28.7772 21.6412 28.7959C22.2292 28.8146 22.9759 28.8239 23.8812 28.8239C24.8799 28.8239 25.7292 28.8752 26.4292 28.9779C27.1292 29.0712 27.6939 29.2159 28.1232 29.4119C28.5619 29.6079 28.8792 29.8599 29.0752 30.1679C29.2712 30.4666 29.3692 30.8212 29.3692 31.2319C29.3692 31.9412 29.1452 32.5199 28.6972 32.9679C28.2492 33.4159 27.5399 33.7472 26.5692 33.9619C25.5985 34.1766 24.3292 34.2839 22.7612 34.2839C21.8745 34.2839 21.0579 34.2326 20.3112 34.1299C19.5739 34.0272 18.9159 33.8779 18.3372 33.6819C17.7585 33.4766 17.2685 33.2292 16.8672 32.9399C16.4659 32.6412 16.1579 32.3099 15.9432 31.9459C15.7379 31.5726 15.6352 31.1619 15.6352 30.7139ZM35.3845 30.2239V31.3439H46.0245V34.0039H31.8845V25.0439H45.9965V27.7039H35.3845V28.8239H44.0645V30.2239H35.3845ZM48.8196 34.0039V25.0439H59.6416C60.4909 25.0439 61.2516 25.1419 61.9236 25.3379C62.6049 25.5246 63.1416 25.8419 63.5336 26.2899C63.9349 26.7379 64.1356 27.3492 64.1356 28.1239C64.1356 28.6372 64.0422 29.0619 63.8556 29.3979C63.6689 29.7339 63.4122 29.9952 63.0856 30.1819C62.7589 30.3686 62.3856 30.5039 61.9656 30.5879C61.5456 30.6719 61.1069 30.7232 60.6496 30.7419L59.6276 30.5459C60.7382 30.5552 61.5922 30.6019 62.1896 30.6859C62.7962 30.7699 63.2162 30.9239 63.4496 31.1479C63.6922 31.3626 63.8136 31.6752 63.8136 32.0859V34.0039H60.3136V32.5059C60.3136 32.2259 60.2576 32.0159 60.1456 31.8759C60.0429 31.7266 59.8096 31.6239 59.4456 31.5679C59.0909 31.5119 58.5402 31.4839 57.7936 31.4839H52.3196V34.0039H48.8196ZM52.3196 29.1459H59.6416C59.9216 29.1459 60.1549 29.0992 60.3416 29.0059C60.5376 28.9126 60.6356 28.7352 60.6356 28.4739C60.6356 28.2312 60.5376 28.0679 60.3416 27.9839C60.1549 27.8906 59.9216 27.8439 59.6416 27.8439H52.3196V29.1459ZM71.3616 34.0039L65.9296 25.0439H69.8776L74.5116 33.6539H73.0836L77.7176 25.0439H81.6096L76.2336 34.0039H71.3616ZM84.0618 25.0439H87.5618V34.0039H84.0618V25.0439ZM107.301 30.2659C107.254 31.1526 106.932 31.8946 106.335 32.4919C105.737 33.0892 104.855 33.5372 103.689 33.8359C102.531 34.1346 101.066 34.2839 99.2927 34.2839C97.9394 34.2839 96.7261 34.2092 95.6527 34.0599C94.5794 33.9199 93.6647 33.6772 92.9087 33.3319C92.1527 32.9772 91.5741 32.4966 91.1727 31.8899C90.7714 31.2832 90.5707 30.5179 90.5707 29.5939C90.5707 28.6699 90.7714 27.8999 91.1727 27.2839C91.5741 26.6586 92.1527 26.1639 92.9087 25.7999C93.6647 25.4266 94.5794 25.1606 95.6527 25.0019C96.7261 24.8432 97.9394 24.7639 99.2927 24.7639C101.066 24.7639 102.536 24.9272 103.703 25.2539C104.869 25.5712 105.751 26.0426 106.349 26.6679C106.946 27.2932 107.268 28.0539 107.315 28.9499H103.675C103.563 28.6512 103.357 28.3899 103.059 28.1659C102.76 27.9326 102.312 27.7506 101.715 27.6199C101.117 27.4892 100.31 27.4239 99.2927 27.4239C98.0981 27.4239 97.1274 27.4986 96.3807 27.6479C95.6341 27.7879 95.0881 28.0166 94.7427 28.3339C94.3974 28.6512 94.2247 29.0712 94.2247 29.5939C94.2247 30.0699 94.3974 30.4572 94.7427 30.7559C95.0881 31.0546 95.6341 31.2739 96.3807 31.4139C97.1274 31.5539 98.0981 31.6239 99.2927 31.6239C100.31 31.6239 101.113 31.5632 101.701 31.4419C102.298 31.3206 102.746 31.1572 103.045 30.9519C103.343 30.7372 103.549 30.5086 103.661 30.2659H107.301ZM113.62 30.2239V31.3439H124.26V34.0039H110.12V25.0439H124.232V27.7039H113.62V28.8239H122.3V30.2239H113.62ZM126.566 30.7139H130.388C130.453 30.9099 130.644 31.0779 130.962 31.2179C131.279 31.3486 131.704 31.4512 132.236 31.5259C132.777 31.5912 133.402 31.6239 134.112 31.6239C134.812 31.6239 135.362 31.6052 135.764 31.5679C136.174 31.5212 136.464 31.4466 136.632 31.3439C136.8 31.2319 136.884 31.0826 136.884 30.8959C136.884 30.7186 136.748 30.5832 136.478 30.4899C136.207 30.3872 135.726 30.3172 135.036 30.2799C134.345 30.2426 133.374 30.2239 132.124 30.2239C131.19 30.2239 130.383 30.1819 129.702 30.0979C129.03 30.0046 128.474 29.8646 128.036 29.6779C127.606 29.4819 127.289 29.2392 127.084 28.9499C126.878 28.6512 126.776 28.2966 126.776 27.8859C126.776 27.1766 127.014 26.5932 127.49 26.1359C127.975 25.6692 128.703 25.3239 129.674 25.0999C130.654 24.8666 131.876 24.7499 133.342 24.7499C135.488 24.7499 137.126 25.0626 138.256 25.6879C139.394 26.3039 139.964 27.1952 139.964 28.3619H136.338C136.291 28.0539 136.002 27.8206 135.47 27.6619C134.938 27.4939 134.182 27.4099 133.202 27.4099C132.231 27.4099 131.508 27.4659 131.032 27.5779C130.565 27.6899 130.332 27.8812 130.332 28.1519C130.332 28.2919 130.397 28.4039 130.528 28.4879C130.658 28.5719 130.882 28.6419 131.2 28.6979C131.526 28.7446 131.984 28.7772 132.572 28.7959C133.16 28.8146 133.906 28.8239 134.812 28.8239C135.81 28.8239 136.66 28.8752 137.36 28.9779C138.06 29.0712 138.624 29.2159 139.054 29.4119C139.492 29.6079 139.81 29.8599 140.006 30.1679C140.202 30.4666 140.3 30.8212 140.3 31.2319C140.3 31.9412 140.076 32.5199 139.628 32.9679C139.18 33.4159 138.47 33.7472 137.5 33.9619C136.529 34.1766 135.26 34.2839 133.692 34.2839C132.805 34.2839 131.988 34.2326 131.242 34.1299C130.504 34.0272 129.846 33.8779 129.268 33.6819C128.689 33.4766 128.199 33.2292 127.798 32.9399C127.396 32.6412 127.088 32.3099 126.874 31.9459C126.668 31.5726 126.566 31.1619 126.566 30.7139Z" fill="url(#paint33_linear)"/>
<defs>
<linearGradient id="paint0_linear" x1="78.5" y1="1.00391" x2="78.5" y2="56.0039" gradientUnits="userSpaceOnUse">
<stop stop-color="#7AF0D1"/>
<stop offset="1" stop-color="white"/>
</linearGradient>
<linearGradient id="paint1_linear" x1="788.065" y1="9.71973" x2="788.065" y2="49.6004" gradientUnits="userSpaceOnUse">
<stop stop-color="#7AF0D1"/>
<stop offset="0.576042" stop-color="#A8F5E1"/>
<stop offset="1" stop-color="white"/>
</linearGradient>
<linearGradient id="paint2_linear" x1="770.334" y1="9.72852" x2="770.334" y2="49.6092" gradientUnits="userSpaceOnUse">
<stop stop-color="#7AF0D1"/>
<stop offset="0.576042" stop-color="#A8F5E1"/>
<stop offset="1" stop-color="white"/>
</linearGradient>
<linearGradient id="paint3_linear" x1="752.604" y1="9.72852" x2="752.604" y2="49.6179" gradientUnits="userSpaceOnUse">
<stop stop-color="#7AF0D1"/>
<stop offset="0.576042" stop-color="#A8F5E1"/>
<stop offset="1" stop-color="white"/>
</linearGradient>
<linearGradient id="paint4_linear" x1="734.878" y1="9.7373" x2="734.878" y2="49.618" gradientUnits="userSpaceOnUse">
<stop stop-color="#7AF0D1"/>
<stop offset="0.576042" stop-color="#A8F5E1"/>
<stop offset="1" stop-color="white"/>
</linearGradient>
<linearGradient id="paint5_linear" x1="717.147" y1="9.74609" x2="717.147" y2="49.6267" gradientUnits="userSpaceOnUse">
<stop stop-color="#7AF0D1"/>
<stop offset="0.576042" stop-color="#A8F5E1"/>
<stop offset="1" stop-color="white"/>
</linearGradient>
<linearGradient id="paint6_linear" x1="699.421" y1="9.75488" x2="699.421" y2="49.6355" gradientUnits="userSpaceOnUse">
<stop stop-color="#7AF0D1"/>
<stop offset="0.576042" stop-color="#A8F5E1"/>
<stop offset="1" stop-color="white"/>
</linearGradient>
<linearGradient id="paint7_linear" x1="681.69" y1="9.76367" x2="681.69" y2="49.6443" gradientUnits="userSpaceOnUse">
<stop stop-color="#7AF0D1"/>
<stop offset="0.576042" stop-color="#A8F5E1"/>
<stop offset="1" stop-color="white"/>
</linearGradient>
<linearGradient id="paint8_linear" x1="663.964" y1="9.77148" x2="663.964" y2="49.6521" gradientUnits="userSpaceOnUse">
<stop stop-color="#7AF0D1"/>
<stop offset="0.576042" stop-color="#A8F5E1"/>
<stop offset="1" stop-color="white"/>
</linearGradient>
<linearGradient id="paint9_linear" x1="646.234" y1="9.78125" x2="646.234" y2="49.6619" gradientUnits="userSpaceOnUse">
<stop stop-color="#7AF0D1"/>
<stop offset="0.576042" stop-color="#A8F5E1"/>
<stop offset="1" stop-color="white"/>
</linearGradient>
<linearGradient id="paint10_linear" x1="628.503" y1="9.78125" x2="628.503" y2="49.6707" gradientUnits="userSpaceOnUse">
<stop stop-color="#7AF0D1"/>
<stop offset="0.576042" stop-color="#A8F5E1"/>
<stop offset="1" stop-color="white"/>
</linearGradient>
<linearGradient id="paint11_linear" x1="610.777" y1="9.79004" x2="610.777" y2="49.6794" gradientUnits="userSpaceOnUse">
<stop stop-color="#7AF0D1"/>
<stop offset="0.576042" stop-color="#A8F5E1"/>
<stop offset="1" stop-color="white"/>
</linearGradient>
<linearGradient id="paint12_linear" x1="593.046" y1="9.79883" x2="593.046" y2="49.6795" gradientUnits="userSpaceOnUse">
<stop stop-color="#7AF0D1"/>
<stop offset="0.576042" stop-color="#A8F5E1"/>
<stop offset="1" stop-color="white"/>
</linearGradient>
<linearGradient id="paint13_linear" x1="575.32" y1="9.80664" x2="575.32" y2="49.6873" gradientUnits="userSpaceOnUse">
<stop stop-color="#7AF0D1"/>
<stop offset="0.576042" stop-color="#A8F5E1"/>
<stop offset="1" stop-color="white"/>
</linearGradient>
<linearGradient id="paint14_linear" x1="557.589" y1="9.81641" x2="557.589" y2="49.6971" gradientUnits="userSpaceOnUse">
<stop stop-color="#7AF0D1"/>
<stop offset="0.576042" stop-color="#A8F5E1"/>
<stop offset="1" stop-color="white"/>
</linearGradient>
<linearGradient id="paint15_linear" x1="539.863" y1="9.8252" x2="539.863" y2="49.7058" gradientUnits="userSpaceOnUse">
<stop stop-color="#7AF0D1"/>
<stop offset="0.576042" stop-color="#A8F5E1"/>
<stop offset="1" stop-color="white"/>
</linearGradient>
<linearGradient id="paint16_linear" x1="522.133" y1="9.83301" x2="522.133" y2="49.7137" gradientUnits="userSpaceOnUse">
<stop stop-color="#7AF0D1"/>
<stop offset="0.576042" stop-color="#A8F5E1"/>
<stop offset="1" stop-color="white"/>
</linearGradient>
<linearGradient id="paint17_linear" x1="504.402" y1="9.83301" x2="504.402" y2="49.7224" gradientUnits="userSpaceOnUse">
<stop stop-color="#7AF0D1"/>
<stop offset="0.576042" stop-color="#A8F5E1"/>
<stop offset="1" stop-color="white"/>
</linearGradient>
<linearGradient id="paint18_linear" x1="486.676" y1="9.8418" x2="486.676" y2="49.7312" gradientUnits="userSpaceOnUse">
<stop stop-color="#7AF0D1"/>
<stop offset="0.576042" stop-color="#A8F5E1"/>
<stop offset="1" stop-color="white"/>
</linearGradient>
<linearGradient id="paint19_linear" x1="468.945" y1="9.85156" x2="468.945" y2="49.7322" gradientUnits="userSpaceOnUse">
<stop stop-color="#7AF0D1"/>
<stop offset="0.576042" stop-color="#A8F5E1"/>
<stop offset="1" stop-color="white"/>
</linearGradient>
<linearGradient id="paint20_linear" x1="451.219" y1="9.86035" x2="451.219" y2="49.741" gradientUnits="userSpaceOnUse">
<stop stop-color="#7AF0D1"/>
<stop offset="0.576042" stop-color="#A8F5E1"/>
<stop offset="1" stop-color="white"/>
</linearGradient>
<linearGradient id="paint21_linear" x1="433.489" y1="9.86816" x2="433.489" y2="49.7488" gradientUnits="userSpaceOnUse">
<stop stop-color="#7AF0D1"/>
<stop offset="0.576042" stop-color="#A8F5E1"/>
<stop offset="1" stop-color="white"/>
</linearGradient>
<linearGradient id="paint22_linear" x1="415.763" y1="9.87695" x2="415.763" y2="49.7576" gradientUnits="userSpaceOnUse">
<stop stop-color="#7AF0D1"/>
<stop offset="0.576042" stop-color="#A8F5E1"/>
<stop offset="1" stop-color="white"/>
</linearGradient>
<linearGradient id="paint23_linear" x1="398.032" y1="9.88672" x2="398.032" y2="49.7674" gradientUnits="userSpaceOnUse">
<stop stop-color="#7AF0D1"/>
<stop offset="0.576042" stop-color="#A8F5E1"/>
<stop offset="1" stop-color="white"/>
</linearGradient>
<linearGradient id="paint24_linear" x1="380.301" y1="9.88672" x2="380.301" y2="49.7761" gradientUnits="userSpaceOnUse">
<stop stop-color="#7AF0D1"/>
<stop offset="0.576042" stop-color="#A8F5E1"/>
<stop offset="1" stop-color="white"/>
</linearGradient>
<linearGradient id="paint25_linear" x1="362.575" y1="9.89453" x2="362.575" y2="49.7839" gradientUnits="userSpaceOnUse">
<stop stop-color="#7AF0D1"/>
<stop offset="0.576042" stop-color="#A8F5E1"/>
<stop offset="1" stop-color="white"/>
</linearGradient>
<linearGradient id="paint26_linear" x1="346.946" y1="10.0039" x2="346.946" y2="49.8846" gradientUnits="userSpaceOnUse">
<stop stop-color="#7AF0D1"/>
<stop offset="0.576042" stop-color="#A8F5E1"/>
<stop offset="1" stop-color="white"/>
</linearGradient>
<linearGradient id="paint27_linear" x1="329.219" y1="10.0127" x2="329.219" y2="49.8933" gradientUnits="userSpaceOnUse">
<stop stop-color="#7AF0D1"/>
<stop offset="0.576042" stop-color="#A8F5E1"/>
<stop offset="1" stop-color="white"/>
</linearGradient>
<linearGradient id="paint28_linear" x1="311.489" y1="10.0205" x2="311.489" y2="49.9011" gradientUnits="userSpaceOnUse">
<stop stop-color="#7AF0D1"/>
<stop offset="0.576042" stop-color="#A8F5E1"/>
<stop offset="1" stop-color="white"/>
</linearGradient>
<linearGradient id="paint29_linear" x1="293.763" y1="10.0293" x2="293.763" y2="49.91" gradientUnits="userSpaceOnUse">
<stop stop-color="#7AF0D1"/>
<stop offset="0.576042" stop-color="#A8F5E1"/>
<stop offset="1" stop-color="white"/>
</linearGradient>
<linearGradient id="paint30_linear" x1="276.032" y1="10.0391" x2="276.032" y2="49.9197" gradientUnits="userSpaceOnUse">
<stop stop-color="#7AF0D1"/>
<stop offset="0.576042" stop-color="#A8F5E1"/>
<stop offset="1" stop-color="white"/>
</linearGradient>
<linearGradient id="paint31_linear" x1="258.301" y1="10.0391" x2="258.301" y2="49.9285" gradientUnits="userSpaceOnUse">
<stop stop-color="#7AF0D1"/>
<stop offset="0.576042" stop-color="#A8F5E1"/>
<stop offset="1" stop-color="white"/>
</linearGradient>
<linearGradient id="paint32_linear" x1="240.575" y1="10.0469" x2="240.575" y2="49.9363" gradientUnits="userSpaceOnUse">
<stop stop-color="#7AF0D1"/>
<stop offset="0.576042" stop-color="#A8F5E1"/>
<stop offset="1" stop-color="white"/>
</linearGradient>
<linearGradient id="paint33_linear" x1="78" y1="21.0039" x2="78" y2="35.0039" gradientUnits="userSpaceOnUse">
<stop stop-color="#7AF0D1"/>
<stop offset="0.45625" stop-color="#7CF0D2"/>
<stop offset="1" stop-color="white"/>
</linearGradient>
</defs>
</svg>
