<svg  viewBox="0 0 81 81" fill="none" xmlns="http://www.w3.org/2000/svg">
<path d="M40.2798 64.9998C53.9318 64.9998 64.999 53.9327 64.999 40.2807C64.999 26.6287 53.9318 15.5615 40.2798 15.5615C26.6278 15.5615 15.5607 26.6287 15.5607 40.2807C15.5607 53.9327 26.6278 64.9998 40.2798 64.9998Z" stroke="#7AF0D1" stroke-miterlimit="10"/>
<path d="M40.2796 60.4157C51.401 60.4157 60.4166 51.4 60.4166 40.2786C60.4166 29.1573 51.401 20.1416 40.2796 20.1416C29.1582 20.1416 20.1426 29.1573 20.1426 40.2786C20.1426 51.4 29.1582 60.4157 40.2796 60.4157Z" stroke="#7AF0D1" stroke-miterlimit="10"/>
<path d="M40.2799 55.654C48.7709 55.654 55.6542 48.7706 55.6542 40.2796C55.6542 31.7886 48.7709 24.9053 40.2799 24.9053C31.7888 24.9053 24.9055 31.7886 24.9055 40.2796C24.9055 48.7706 31.7888 55.654 40.2799 55.654Z" stroke="#7AF0D1" stroke-miterlimit="10"/>
<path d="M0 40.2793H32.8169" stroke="#7AF0D1" stroke-miterlimit="10"/>
<path d="M47.7426 40.2793H80.5566" stroke="#7AF0D1" stroke-miterlimit="10"/>
<path d="M40.2798 47.7432V80.56" stroke="#7AF0D1" stroke-miterlimit="10"/>
<path d="M40.2798 0V32.8168" stroke="#7AF0D1" stroke-miterlimit="10"/>
<path d="M65.8595 64.6123L76.9424 75.5343" stroke="#7AF0D1" stroke-miterlimit="10"/>
<path d="M4.64417 3.39648L15.727 14.3213" stroke="#7AF0D1" stroke-miterlimit="10"/>
<path d="M15.727 64.6123L4.64417 75.5343" stroke="#7AF0D1" stroke-miterlimit="10"/>
<path d="M76.9424 3.39648L65.8595 14.3213" stroke="#7AF0D1" stroke-miterlimit="10"/>
</svg>
