<svg  viewBox="0 0 1373 492" fill="none" xmlns="http://www.w3.org/2000/svg">
<path d="M0.425055 127.523C0.191048 94.6906 26.8057 67.9832 59.6388 68.103L953.189 71.3629C969.851 71.4237 985.762 64.4364 996.991 52.1269L1027 19.2364C1038.18 6.98229 1054 0 1070.58 0H1313C1345.58 0 1372 26.4152 1372 59V431C1372 463.585 1345.58 490 1313 490H61.5895C29.1688 490 2.82208 463.84 2.59101 431.42L0.425055 127.523Z" fill="#EDEDED" fill-opacity="0.09"/>
<path d="M1313.34 490.921H77.5C37.4237 490.921 5 453.597 5 431.707V120.418C5 98.5279 12.9152 71.9364 53 71.9364H979.424L1045.66 1H1299.42C1339.5 1 1372 25.7377 1372 47.6279V431.707C1371.99 453.597 1353.43 490.921 1313.34 490.921Z" stroke="#7AF0D1" stroke-miterlimit="10"/>
</svg>
