<svg width="100" height="97" viewBox="0 0 100 97" fill="none" xmlns="http://www.w3.org/2000/svg">
<path d="M60.0706 87.2384H3.63902V26.0052H33.5146V50.1762C33.5146 50.6035 33.6894 51.0134 34.0007 51.3156C34.312 51.6178 34.7341 51.7876 35.1743 51.7876H51.7718C52.212 51.7876 52.6342 51.6178 52.9455 51.3156C53.2567 51.0134 53.4316 50.6035 53.4316 50.1762V26.0052H83.3071V46.0188C83.3071 46.4461 83.482 46.856 83.7933 47.1582C84.1045 47.4604 84.5267 47.6302 84.9669 47.6302C85.4071 47.6302 85.8292 47.4604 86.1405 47.1582C86.4518 46.856 86.6266 46.4461 86.6266 46.0188V24.3938C86.6266 24.3728 86.615 24.3551 86.615 24.3358C86.6081 24.1661 86.5733 23.9985 86.5121 23.8395C86.4972 23.804 86.4889 23.7686 86.4739 23.7331C86.459 23.6976 86.4623 23.6928 86.4524 23.6735L74.8341 1.11388C74.6962 0.846015 74.4842 0.620744 74.2218 0.463343C73.9594 0.305943 73.6571 0.222639 73.3486 0.222778H13.5975C13.2891 0.222639 12.9867 0.305943 12.7243 0.463343C12.462 0.620744 12.2499 0.846015 12.1121 1.11388L0.493793 23.6735C0.483835 23.6928 0.482175 23.7138 0.472216 23.7331C0.462258 23.7524 0.44898 23.804 0.434042 23.8395C0.373002 23.998 0.338269 24.165 0.331137 24.3342C0.331137 24.3551 0.319519 24.3728 0.319519 24.3938V88.8498C0.319519 89.2771 0.494385 89.687 0.805649 89.9892C1.11691 90.2914 1.53908 90.4612 1.97927 90.4612H60.0706C60.5108 90.4612 60.933 90.2914 61.2442 89.9892C61.5555 89.687 61.7303 89.2771 61.7303 88.8498C61.7303 88.4224 61.5555 88.0125 61.2442 87.7103C60.933 87.4081 60.5108 87.2384 60.0706 87.2384ZM50.1121 48.5648H36.8341V26.0052H50.1121V48.5648ZM82.2814 22.7824H53.2125L50.366 3.44558H72.3229L82.2814 22.7824ZM47.0133 3.44558L49.8581 22.7824H37.088L39.9328 3.44558H47.0133ZM14.6233 3.44558H36.5801L33.7337 22.7824H4.66475L14.6233 3.44558Z" fill="#7AF0D1"/>
<path d="M25.2158 71.1244H11.9378C11.4976 71.1244 11.0754 71.2942 10.7642 71.5964C10.4529 71.8986 10.278 72.3084 10.278 72.7358C10.278 73.1632 10.4529 73.573 10.7642 73.8752C11.0754 74.1774 11.4976 74.3472 11.9378 74.3472H25.2158C25.656 74.3472 26.0782 74.1774 26.3894 73.8752C26.7007 73.573 26.8756 73.1632 26.8756 72.7358C26.8756 72.3084 26.7007 71.8986 26.3894 71.5964C26.0782 71.2942 25.656 71.1244 25.2158 71.1244Z" fill="#7AF0D1"/>
<path d="M25.2158 77.5699H11.9378C11.4976 77.5699 11.0754 77.7397 10.7642 78.0419C10.4529 78.3441 10.278 78.754 10.278 79.1813C10.278 79.6087 10.4529 80.0186 10.7642 80.3208C11.0754 80.623 11.4976 80.7927 11.9378 80.7927H25.2158C25.656 80.7927 26.0782 80.623 26.3894 80.3208C26.7007 80.0186 26.8756 79.6087 26.8756 79.1813C26.8756 78.754 26.7007 78.3441 26.3894 78.0419C26.0782 77.7397 25.656 77.5699 25.2158 77.5699Z" fill="#7AF0D1"/>
<path d="M25.2158 64.6787H11.9378C11.4976 64.6787 11.0754 64.8485 10.7642 65.1507C10.4529 65.4529 10.278 65.8627 10.278 66.2901C10.278 66.7175 10.4529 67.1273 10.7642 67.4295C11.0754 67.7317 11.4976 67.9015 11.9378 67.9015H25.2158C25.656 67.9015 26.0782 67.7317 26.3894 67.4295C26.7007 67.1273 26.8756 66.7175 26.8756 66.2901C26.8756 65.8627 26.7007 65.4529 26.3894 65.1507C26.0782 64.8485 25.656 64.6787 25.2158 64.6787Z" fill="#7AF0D1"/>
<path d="M35.1743 64.6787H31.8548C31.4146 64.6787 30.9925 64.8485 30.6812 65.1507C30.3699 65.4529 30.1951 65.8627 30.1951 66.2901C30.1951 66.7175 30.3699 67.1273 30.6812 67.4295C30.9925 67.7317 31.4146 67.9015 31.8548 67.9015H35.1743C35.6145 67.9015 36.0367 67.7317 36.348 67.4295C36.6592 67.1273 36.8341 66.7175 36.8341 66.2901C36.8341 65.8627 36.6592 65.4529 36.348 65.1507C36.0367 64.8485 35.6145 64.6787 35.1743 64.6787Z" fill="#7AF0D1"/>
<path d="M35.1743 71.1244H31.8548C31.4146 71.1244 30.9925 71.2942 30.6812 71.5964C30.3699 71.8986 30.1951 72.3084 30.1951 72.7358C30.1951 73.1632 30.3699 73.573 30.6812 73.8752C30.9925 74.1774 31.4146 74.3472 31.8548 74.3472H35.1743C35.6145 74.3472 36.0367 74.1774 36.348 73.8752C36.6592 73.573 36.8341 73.1632 36.8341 72.7358C36.8341 72.3084 36.6592 71.8986 36.348 71.5964C36.0367 71.2942 35.6145 71.1244 35.1743 71.1244Z" fill="#7AF0D1"/>
<path d="M35.1743 77.5699H31.8548C31.4146 77.5699 30.9925 77.7397 30.6812 78.0419C30.3699 78.3441 30.1951 78.754 30.1951 79.1813C30.1951 79.6087 30.3699 80.0186 30.6812 80.3208C30.9925 80.623 31.4146 80.7927 31.8548 80.7927H35.1743C35.6145 80.7927 36.0367 80.623 36.348 80.3208C36.6592 80.0186 36.8341 79.6087 36.8341 79.1813C36.8341 78.754 36.6592 78.3441 36.348 78.0419C36.0367 77.7397 35.6145 77.5699 35.1743 77.5699Z" fill="#7AF0D1"/>
<path d="M98.7694 55.0925L78.8523 48.6469C78.5119 48.5368 78.1438 48.5368 77.8034 48.6469L57.8863 55.0925C57.5557 55.1994 57.2681 55.4047 57.0644 55.6791C56.8606 55.9536 56.751 56.2834 56.7511 56.6217V65.1621C56.746 70.7334 58.1607 76.2194 60.8689 81.1311C63.5772 86.0429 67.4949 90.2279 72.2731 93.3133L77.4067 96.636C77.6794 96.8127 78 96.9069 78.3279 96.9069C78.6557 96.9069 78.9763 96.8127 79.249 96.636L84.3826 93.3133C89.1608 90.2279 93.0785 86.0429 95.7868 81.1311C98.495 76.2194 99.9097 70.7334 99.9046 65.1621V56.6217C99.9047 56.2834 99.7951 55.9536 99.5913 55.6791C99.3876 55.4047 99.1 55.1994 98.7694 55.0925ZM96.5851 65.1621C96.5909 70.2036 95.3117 75.1681 92.8614 79.613C90.4111 84.0579 86.8659 87.8451 82.542 90.6368L78.3279 93.3616L74.1137 90.6335C69.7903 87.8421 66.2454 84.0555 63.7951 79.6112C61.3448 75.1669 60.0653 70.2031 60.0706 65.1621V57.7835L78.3279 51.8745L96.5851 57.7835V65.1621Z" fill="#7AF0D1"/>
<path d="M78.3992 87.5026C78.5202 87.6787 78.6757 87.8299 78.8568 87.9476C79.038 88.0653 79.2412 88.1473 79.455 88.1887C79.6688 88.2302 79.8889 88.2303 80.1027 88.1892C80.3166 88.148 80.52 88.0664 80.7013 87.9489C86.6545 84.1118 90.8779 78.2164 92.5121 71.4627C92.6131 71.0467 92.5398 70.6087 92.3082 70.2452C92.0766 69.8816 91.7058 69.6223 91.2772 69.5242C90.8487 69.4261 90.3976 69.4973 90.0231 69.7222C89.6487 69.947 89.3816 70.307 89.2805 70.7231C87.8395 76.6821 84.1125 81.8835 78.859 85.2676C78.6776 85.385 78.5218 85.536 78.4006 85.7118C78.2793 85.8877 78.1949 86.0851 78.1522 86.2926C78.1095 86.5002 78.1094 86.7138 78.1518 86.9215C78.1941 87.1291 78.2782 87.3265 78.3992 87.5026Z" fill="#7AF0D1"/>
<path d="M91.6059 66.7736C92.0461 66.7736 92.4682 66.6038 92.7795 66.3016C93.0908 65.9994 93.2656 65.5896 93.2656 65.1622V62.8789C93.2656 62.4515 93.0908 62.0416 92.7795 61.7394C92.4682 61.4372 92.0461 61.2675 91.6059 61.2675C91.1657 61.2675 90.7435 61.4372 90.4323 61.7394C90.121 62.0416 89.9461 62.4515 89.9461 62.8789V65.1622C89.9461 65.5896 90.121 65.9994 90.4323 66.3016C90.7435 66.6038 91.1657 66.7736 91.6059 66.7736Z" fill="#7AF0D1"/>
</svg>
