<svg viewBox="0 0 12 12" fill="none" xmlns="http://www.w3.org/2000/svg">
<g clip-path="url(#clip0)">
<path d="M11.8534 11.1474L8.44091 7.7349C9.10191 6.91842 9.4999 5.88092 9.4999 4.75094C9.4999 2.13196 7.36891 0.000976562 4.74994 0.000976562C2.13096 0.000976562 0 2.13194 0 4.75091C0 7.36989 2.13099 9.50087 4.74996 9.50087C5.87994 9.50087 6.91744 9.10289 7.73392 8.44188L11.1464 11.8544C11.2439 11.9519 11.3719 12.0009 11.4999 12.0009C11.6279 12.0009 11.7559 11.9519 11.8534 11.8544C12.0489 11.6589 12.0489 11.3429 11.8534 11.1474ZM4.74996 8.50088C2.68197 8.50088 0.999998 6.8189 0.999998 4.75091C0.999998 2.68293 2.68197 1.00095 4.74996 1.00095C6.81795 1.00095 8.49992 2.68293 8.49992 4.75091C8.49992 6.8189 6.81793 8.50088 4.74996 8.50088Z" fill="white"/>
</g>
<defs>
<clipPath id="clip0">
<rect width="12" height="12" fill="white"/>
</clipPath>
</defs>
</svg>
