<svg  viewBox="0 0 252 120" fill="none" xmlns="http://www.w3.org/2000/svg">
<g filter="url(#filter0_dii)">
<g clip-path="url(#clip0)">
<rect x="30" y="30" width="192" height="59.2965" rx="29.6482" fill="url(#paint0_radial)"/>
<g filter="url(#filter1_f)">
<ellipse cx="197.869" cy="53.7943" rx="42.6304" ry="43.7826" transform="rotate(-165 197.869 53.7943)" fill="#64BCA5" fill-opacity="0.7"/>
</g>
<g filter="url(#filter2_f)">
<ellipse rx="43.5232" ry="43.2762" transform="matrix(-0.00163837 0.999999 -0.999999 0.00164761 83.926 59.8674)" fill="#1A23FF"/>
</g>
<g filter="url(#filter3_f)">
<circle cx="125.623" cy="35.5103" r="43.7826" transform="rotate(-165 125.623 35.5103)" fill="#44C5A3" fill-opacity="0.6"/>
</g>
<g filter="url(#filter4_f)">
<ellipse cx="240.913" cy="98.986" rx="42.6304" ry="41.4783" transform="rotate(-165 240.913 98.986)" fill="#1A23FF" fill-opacity="0.68"/>
</g>
<g filter="url(#filter5_f)">
<ellipse cx="140.509" cy="28.2118" rx="42.6304" ry="43.7826" transform="rotate(-165 140.509 28.2118)" fill="#7AF0D1"/>
</g>
<g filter="url(#filter6_f)">
<ellipse rx="43.5232" ry="43.2762" transform="matrix(-0.00163837 0.999999 -0.999999 0.00164761 258.348 106.482)" fill="#7AF0D1"/>
</g>
<g filter="url(#filter7_f)">
<ellipse cx="255.185" cy="35.7538" rx="42.6304" ry="43.7826" transform="rotate(-165 255.185 35.7538)" fill="#E731DF"/>
</g>
<g filter="url(#filter8_f)">
<ellipse rx="43.5232" ry="43.2762" transform="matrix(-0.00163837 0.999999 -0.999999 0.00164761 117.348 78.4822)" fill="#E731DF"/>
</g>
<g filter="url(#filter9_f)">
<ellipse cx="275.897" cy="41.5255" rx="50.6956" ry="46.087" transform="rotate(-165 275.897 41.5255)" fill="#761F72" fill-opacity="0.6"/>
</g>
<g filter="url(#filter10_f)">
<ellipse rx="50.0517" ry="45.44" transform="matrix(-0.00163837 0.999999 -0.999999 0.00164761 73.521 93.0142)" fill="#7AF0D1"/>
</g>
<path d="M90.2225 69.6377C88.4558 69.6377 86.8558 69.2544 85.4225 68.4877C84.0058 67.7044 82.8891 66.6294 82.0725 65.2627C81.2725 63.896 80.8725 62.3544 80.8725 60.6377C80.8725 58.921 81.2808 57.3794 82.0975 56.0127C82.9141 54.646 84.0308 53.5794 85.4475 52.8127C86.8808 52.0294 88.4808 51.6377 90.2475 51.6377C91.6808 51.6377 92.9891 51.8877 94.1725 52.3877C95.3558 52.8877 96.3558 53.6127 97.1725 54.5627L95.0725 56.5377C93.8058 55.171 92.2475 54.4877 90.3975 54.4877C89.1975 54.4877 88.1225 54.7544 87.1725 55.2877C86.2225 55.8044 85.4808 56.5294 84.9475 57.4627C84.4141 58.396 84.1475 59.4544 84.1475 60.6377C84.1475 61.821 84.4141 62.8794 84.9475 63.8127C85.4808 64.746 86.2225 65.4794 87.1725 66.0127C88.1225 66.5294 89.1975 66.7877 90.3975 66.7877C92.2475 66.7877 93.8058 66.096 95.0725 64.7127L97.1725 66.7127C96.3558 67.6627 95.3475 68.3877 94.1475 68.8877C92.9641 69.3877 91.6558 69.6377 90.2225 69.6377ZM115.837 51.8877V69.3877H112.587V61.8877H103.537V69.3877H100.287V51.8877H103.537V59.1127H112.587V51.8877H115.837ZM133.651 66.6627V69.3877H120.526V51.8877H133.301V54.6127H123.776V59.1627H132.226V61.8377H123.776V66.6627H133.651ZM145.301 69.6377C143.534 69.6377 141.934 69.2544 140.501 68.4877C139.084 67.7044 137.967 66.6294 137.151 65.2627C136.351 63.896 135.951 62.3544 135.951 60.6377C135.951 58.921 136.359 57.3794 137.176 56.0127C137.992 54.646 139.109 53.5794 140.526 52.8127C141.959 52.0294 143.559 51.6377 145.326 51.6377C146.759 51.6377 148.067 51.8877 149.251 52.3877C150.434 52.8877 151.434 53.6127 152.251 54.5627L150.151 56.5377C148.884 55.171 147.326 54.4877 145.476 54.4877C144.276 54.4877 143.201 54.7544 142.251 55.2877C141.301 55.8044 140.559 56.5294 140.026 57.4627C139.492 58.396 139.226 59.4544 139.226 60.6377C139.226 61.821 139.492 62.8794 140.026 63.8127C140.559 64.746 141.301 65.4794 142.251 66.0127C143.201 66.5294 144.276 66.7877 145.476 66.7877C147.326 66.7877 148.884 66.096 150.151 64.7127L152.251 66.7127C151.434 67.6627 150.426 68.3877 149.226 68.8877C148.042 69.3877 146.734 69.6377 145.301 69.6377ZM161.39 62.0627L158.615 64.9127V69.3877H155.365V51.8877H158.615V60.8627L167.265 51.8877H170.915L163.565 59.7127L171.365 69.3877H167.565L161.39 62.0627Z" fill="white"/>
</g>
<rect x="31.5" y="31.5" width="189" height="56.2965" rx="28.1482" stroke="#7AF0D1" stroke-opacity="0.7" stroke-width="3"/>
</g>
<defs>
<filter id="filter0_dii" x="0.0434761" y="0.0434761" width="251.913" height="119.21" filterUnits="userSpaceOnUse" color-interpolation-filters="sRGB">
<feFlood flood-opacity="0" result="BackgroundImageFix"/>
<feColorMatrix in="SourceAlpha" type="matrix" values="0 0 0 0 0 0 0 0 0 0 0 0 0 0 0 0 0 0 127 0"/>
<feOffset/>
<feGaussianBlur stdDeviation="14.9783"/>
<feColorMatrix type="matrix" values="0 0 0 0 0 0 0 0 0 0 0 0 0 0 0 0 0 0 0.5 0"/>
<feBlend mode="normal" in2="BackgroundImageFix" result="effect1_dropShadow"/>
<feBlend mode="normal" in="SourceGraphic" in2="effect1_dropShadow" result="shape"/>
<feColorMatrix in="SourceAlpha" type="matrix" values="0 0 0 0 0 0 0 0 0 0 0 0 0 0 0 0 0 0 127 0" result="hardAlpha"/>
<feOffset dy="-6.91304"/>
<feGaussianBlur stdDeviation="4.6087"/>
<feComposite in2="hardAlpha" operator="arithmetic" k2="-1" k3="1"/>
<feColorMatrix type="matrix" values="0 0 0 0 0.478431 0 0 0 0 0.941176 0 0 0 0 0.819608 0 0 0 0.81 0"/>
<feBlend mode="normal" in2="shape" result="effect2_innerShadow"/>
<feColorMatrix in="SourceAlpha" type="matrix" values="0 0 0 0 0 0 0 0 0 0 0 0 0 0 0 0 0 0 127 0" result="hardAlpha"/>
<feOffset dy="6.91304"/>
<feGaussianBlur stdDeviation="12.6739"/>
<feComposite in2="hardAlpha" operator="arithmetic" k2="-1" k3="1"/>
<feColorMatrix type="matrix" values="0 0 0 0 0.478431 0 0 0 0 0.941176 0 0 0 0 0.819608 0 0 0 1 0"/>
<feBlend mode="normal" in2="effect2_innerShadow" result="effect3_innerShadow"/>
</filter>
<filter id="filter1_f" x="129.801" y="-15.2707" width="136.134" height="138.13" filterUnits="userSpaceOnUse" color-interpolation-filters="sRGB">
<feFlood flood-opacity="0" result="BackgroundImageFix"/>
<feBlend mode="normal" in="SourceGraphic" in2="BackgroundImageFix" result="shape"/>
<feGaussianBlur stdDeviation="12.6739" result="effect1_foregroundBlur"/>
</filter>
<filter id="filter2_f" x="15.3006" y="-9.00358" width="137.248" height="137.742" filterUnits="userSpaceOnUse" color-interpolation-filters="sRGB">
<feFlood flood-opacity="0" result="BackgroundImageFix"/>
<feBlend mode="normal" in="SourceGraphic" in2="BackgroundImageFix" result="shape"/>
<feGaussianBlur stdDeviation="12.6739" result="effect1_foregroundBlur"/>
</filter>
<filter id="filter3_f" x="56.4803" y="-33.631" width="138.283" height="138.283" filterUnits="userSpaceOnUse" color-interpolation-filters="sRGB">
<feFlood flood-opacity="0" result="BackgroundImageFix"/>
<feBlend mode="normal" in="SourceGraphic" in2="BackgroundImageFix" result="shape"/>
<feGaussianBlur stdDeviation="12.6739" result="effect1_foregroundBlur"/>
</filter>
<filter id="filter4_f" x="175.304" y="34.3755" width="131.216" height="129.221" filterUnits="userSpaceOnUse" color-interpolation-filters="sRGB">
<feFlood flood-opacity="0" result="BackgroundImageFix"/>
<feBlend mode="normal" in="SourceGraphic" in2="BackgroundImageFix" result="shape"/>
<feGaussianBlur stdDeviation="11.5217" result="effect1_foregroundBlur"/>
</filter>
<filter id="filter5_f" x="35.5717" y="-77.7228" width="209.873" height="211.869" filterUnits="userSpaceOnUse" color-interpolation-filters="sRGB">
<feFlood flood-opacity="0" result="BackgroundImageFix"/>
<feBlend mode="normal" in="SourceGraphic" in2="BackgroundImageFix" result="shape"/>
<feGaussianBlur stdDeviation="31.1087" result="effect1_foregroundBlur"/>
</filter>
<filter id="filter6_f" x="152.853" y="0.7416" width="210.987" height="211.481" filterUnits="userSpaceOnUse" color-interpolation-filters="sRGB">
<feFlood flood-opacity="0" result="BackgroundImageFix"/>
<feBlend mode="normal" in="SourceGraphic" in2="BackgroundImageFix" result="shape"/>
<feGaussianBlur stdDeviation="31.1087" result="effect1_foregroundBlur"/>
</filter>
<filter id="filter7_f" x="129.508" y="-90.9199" width="251.352" height="253.347" filterUnits="userSpaceOnUse" color-interpolation-filters="sRGB">
<feFlood flood-opacity="0" result="BackgroundImageFix"/>
<feBlend mode="normal" in="SourceGraphic" in2="BackgroundImageFix" result="shape"/>
<feGaussianBlur stdDeviation="41.4783" result="effect1_foregroundBlur"/>
</filter>
<filter id="filter8_f" x="-8.8862" y="-47.9975" width="252.465" height="252.959" filterUnits="userSpaceOnUse" color-interpolation-filters="sRGB">
<feFlood flood-opacity="0" result="BackgroundImageFix"/>
<feBlend mode="normal" in="SourceGraphic" in2="BackgroundImageFix" result="shape"/>
<feGaussianBlur stdDeviation="41.4783" result="effect1_foregroundBlur"/>
</filter>
<filter id="filter9_f" x="193.224" y="-37.1573" width="165.345" height="157.366" filterUnits="userSpaceOnUse" color-interpolation-filters="sRGB">
<feFlood flood-opacity="0" result="BackgroundImageFix"/>
<feBlend mode="normal" in="SourceGraphic" in2="BackgroundImageFix" result="shape"/>
<feGaussianBlur stdDeviation="16.1304" result="effect1_foregroundBlur"/>
</filter>
<filter id="filter10_f" x="-4.17883" y="10.7015" width="155.402" height="164.625" filterUnits="userSpaceOnUse" color-interpolation-filters="sRGB">
<feFlood flood-opacity="0" result="BackgroundImageFix"/>
<feBlend mode="normal" in="SourceGraphic" in2="BackgroundImageFix" result="shape"/>
<feGaussianBlur stdDeviation="16.1304" result="effect1_foregroundBlur"/>
</filter>
<radialGradient id="paint0_radial" cx="0" cy="0" r="1" gradientUnits="userSpaceOnUse" gradientTransform="translate(125.309 59.6482) scale(86.331 232.071)">
<stop offset="0.026699" stop-color="#59B19A"/>
<stop offset="1" stop-color="#7AF0D1"/>
</radialGradient>
<clipPath id="clip0">
<rect x="30" y="30" width="192" height="59.2965" rx="29.6482" fill="white"/>
</clipPath>
</defs>
</svg>
