<svg width="288" height="288" viewBox="0 0 288 288" fill="none" xmlns="http://www.w3.org/2000/svg">
<path d="M133.869 195.739C130.613 195.739 127.718 194.292 125.909 192.121L71.2761 132.784C67.2962 128.443 67.6584 121.568 71.9998 117.588C76.3413 113.608 83.216 113.97 87.1959 118.312L134.231 169.327L264.483 39.4373C268.824 35.0958 275.699 35.0958 279.679 39.4373C283.659 43.7787 284.02 50.6534 279.679 54.6334L141.468 192.483C139.658 194.654 136.764 195.739 133.869 195.739Z" fill="#7AF0D1"/>
<path d="M144 288C64.7636 288 0 223.236 0 144C0 64.7643 64.7636 0 144 0C150.151 0 154.854 4.70364 154.854 10.854C154.854 17.0043 150.151 21.7079 144 21.7079C76.7035 21.7079 21.7086 76.7028 21.7086 144C21.7086 211.297 76.7035 266.291 144 266.291C211.297 266.291 266.292 211.297 266.292 144C266.292 137.849 270.996 133.146 277.146 133.146C283.296 133.146 288 137.849 288 144C288 223.236 223.236 288 144 288Z" fill="url(#paint0_linear)" fill-opacity="0.8"/>
<defs>
<linearGradient id="paint0_linear" x1="144" y1="0" x2="144" y2="288" gradientUnits="userSpaceOnUse">
<stop offset="0.398958" stop-color="#7AF0D1"/>
<stop offset="1" stop-color="white"/>
</linearGradient>
</defs>
</svg>
