<svg width="125" height="99" viewBox="0 0 125 99" fill="none" xmlns="http://www.w3.org/2000/svg">
<path d="M109.952 44.295C109.016 19.4418 87.9079 -0.5 62.0881 -0.5C36.2683 -0.5 15.1602 19.4418 14.2241 44.295C5.74724 46.4495 -0.5 53.934 -0.5 62.8277C-0.5 73.4163 8.33448 81.9935 19.2409 81.9935V43.6619C20.5029 21.7699 39.2341 4.33994 62.0881 4.33994C84.9526 4.33994 103.694 21.7801 104.935 43.6823V81.9935C115.842 81.9935 124.676 73.4163 124.676 62.8277C124.676 53.9238 118.418 46.4495 109.952 44.295Z" fill="#7AF0D1"/>
<path d="M104.946 75.142V89.9477C104.946 93.1131 102.285 95.6964 99.0247 95.6964H77.3802V98.7188H99.0247C104.01 98.7188 108.059 94.7774 108.059 89.9477V75.142H104.946Z" fill="#7AF0D1"/>
</svg>
