<svg  viewBox="0 0 192 17" fill="none" xmlns="http://www.w3.org/2000/svg">
<path d="M191.318 4.02335L181.845 14.1922" stroke="#7AF0D1" stroke-miterlimit="10"/>
<path d="M186.797 4.02335L177.324 14.1945" stroke="#7AF0D1" stroke-miterlimit="10"/>
<path d="M182.278 4.0256L172.803 14.1945" stroke="#7AF0D1" stroke-miterlimit="10"/>
<path d="M177.757 4.02768L168.282 14.1966" stroke="#7AF0D1" stroke-miterlimit="10"/>
<path d="M173.236 4.03009L163.764 14.199" stroke="#7AF0D1" stroke-miterlimit="10"/>
<path d="M168.715 4.03229L159.243 14.2012" stroke="#7AF0D1" stroke-miterlimit="10"/>
<path d="M164.197 4.03455L154.722 14.2034" stroke="#7AF0D1" stroke-miterlimit="10"/>
<path d="M159.676 4.03677L150.201 14.2057" stroke="#7AF0D1" stroke-miterlimit="10"/>
<path d="M155.155 4.03677L145.68 14.2079" stroke="#7AF0D1" stroke-miterlimit="10"/>
<path d="M150.633 4.03903L141.161 14.2102" stroke="#7AF0D1" stroke-miterlimit="10"/>
<path d="M146.112 4.04123L136.64 14.2101" stroke="#7AF0D1" stroke-miterlimit="10"/>
<path d="M141.594 4.04349L132.119 14.2124" stroke="#7AF0D1" stroke-miterlimit="10"/>
<path d="M137.073 4.04572L127.598 14.2146" stroke="#7AF0D1" stroke-miterlimit="10"/>
<path d="M132.552 4.04797L123.079 14.2169" stroke="#7AF0D1" stroke-miterlimit="10"/>
<path d="M128.031 4.05005L118.559 14.2189" stroke="#7AF0D1" stroke-miterlimit="10"/>
<path d="M123.51 4.05005L114.037 14.2212" stroke="#7AF0D1" stroke-miterlimit="10"/>
<path d="M118.991 4.05243L109.516 14.2236" stroke="#7AF0D1" stroke-miterlimit="10"/>
<path d="M114.47 4.0545L104.995 14.2234" stroke="#7AF0D1" stroke-miterlimit="10"/>
<path d="M109.949 4.05688L100.477 14.2258" stroke="#7AF0D1" stroke-miterlimit="10"/>
<path d="M105.428 4.05899L95.9551 14.2279" stroke="#7AF0D1" stroke-miterlimit="10"/>
<path d="M100.909 4.06137L91.4341 14.2303" stroke="#7AF0D1" stroke-miterlimit="10"/>
<path d="M96.3885 4.06345L86.9136 14.2323" stroke="#7AF0D1" stroke-miterlimit="10"/>
<path d="M91.867 4.06345L82.3921 14.2346" stroke="#7AF0D1" stroke-miterlimit="10"/>
<path d="M87.3462 4.06656L77.8735 14.2377" stroke="#7AF0D1" stroke-miterlimit="10"/>
<path d="M68.0351 16.1177H7.08277C3.87538 16.1177 1.27588 14.2218 1.27588 11.8825V5.235C1.27588 2.8957 3.87538 0.999756 7.08277 0.999756H68.0351C71.2425 0.999756 73.842 2.8957 73.842 5.235V8.55873V11.8825C73.842 14.2218 71.2425 16.1177 68.0351 16.1177Z" stroke="#7AF0D1" stroke-miterlimit="10"/>
<path d="M24.9293 4.939H26.5253V12.703H24.9293V4.939ZM28.388 6.739H29.948V12.703H28.388V6.739ZM32.72 6.607C33.088 6.607 33.428 6.655 33.74 6.751C34.052 6.847 34.324 6.995 34.556 7.195C34.788 7.395 34.968 7.651 35.096 7.963C35.224 8.267 35.288 8.631 35.288 9.055V12.703H33.728V9.331C33.728 8.827 33.604 8.459 33.356 8.227C33.116 7.987 32.72 7.867 32.168 7.867C31.752 7.867 31.376 7.947 31.04 8.107C30.704 8.267 30.432 8.471 30.224 8.719C30.016 8.959 29.896 9.211 29.864 9.475L29.852 8.863C29.892 8.583 29.984 8.311 30.128 8.047C30.272 7.783 30.464 7.543 30.704 7.327C30.952 7.103 31.244 6.927 31.58 6.799C31.916 6.671 32.296 6.607 32.72 6.607ZM36.2883 6.847H41.0883V8.035H36.2883V6.847ZM39.9363 4.339H41.1723V5.599H40.3083C40.0763 5.591 39.8763 5.615 39.7083 5.671C39.5403 5.727 39.4123 5.831 39.3243 5.983C39.2363 6.127 39.1923 6.335 39.1923 6.607V12.703H37.6323V6.415C37.6323 5.935 37.7203 5.543 37.8963 5.239C38.0723 4.927 38.3323 4.699 38.6763 4.555C39.0203 4.411 39.4403 4.339 39.9363 4.339ZM45.4977 12.847C44.7457 12.847 44.0817 12.727 43.5057 12.487C42.9377 12.247 42.4937 11.899 42.1737 11.443C41.8537 10.979 41.6937 10.411 41.6937 9.739C41.6937 9.067 41.8537 8.499 42.1737 8.035C42.4937 7.563 42.9377 7.207 43.5057 6.967C44.0817 6.727 44.7457 6.607 45.4977 6.607C46.2497 6.607 46.9057 6.727 47.4657 6.967C48.0337 7.207 48.4777 7.563 48.7977 8.035C49.1177 8.499 49.2777 9.067 49.2777 9.739C49.2777 10.411 49.1177 10.979 48.7977 11.443C48.4777 11.899 48.0337 12.247 47.4657 12.487C46.9057 12.727 46.2497 12.847 45.4977 12.847ZM45.4977 11.647C45.9137 11.647 46.2857 11.575 46.6137 11.431C46.9497 11.279 47.2137 11.063 47.4057 10.783C47.5977 10.495 47.6937 10.147 47.6937 9.739C47.6937 9.331 47.5977 8.983 47.4057 8.695C47.2137 8.399 46.9537 8.175 46.6257 8.023C46.2977 7.871 45.9217 7.795 45.4977 7.795C45.0817 7.795 44.7057 7.871 44.3697 8.023C44.0337 8.175 43.7657 8.395 43.5657 8.683C43.3737 8.971 43.2777 9.323 43.2777 9.739C43.2777 10.147 43.3737 10.495 43.5657 10.783C43.7577 11.063 44.0217 11.279 44.3577 11.431C44.6937 11.575 45.0737 11.647 45.4977 11.647Z" fill="#7AF0D1"/>
</svg>
