<svg  viewBox="0 0 334 126" fill="none" xmlns="http://www.w3.org/2000/svg">
<rect  fill="#E5E5E5"/>
<path d="M1.00021 -79C1.00021 -87.0945 8.82496 -93.7854 18.4788 -93.7854M18.4788 -93.7854C85.452 -93.7854 156.512 -93.8927 223.485 -93.8926M18.4788 -93.7854C18.4788 -93.7854 156.512 -93.8927 223.485 -93.8926M223.485 -93.8926L230 -102L236.5 -110.5H316C325.104 -110.042 332.309 -101.016 333 -93.5V-79M1.00021 126V0M1 281C1 289.095 6.71345 295.5 16.3653 295.5H314C323.654 295.5 332.998 289.095 333 281M333 126V0M316.114 -168.9H18.4788C8.82701 -168.9 1 -175.462 1 -183.556L1.00003 -311.129C1.00003 -319.223 8.82499 -325.785 18.4789 -325.785L189.974 -325.785L203.004 -342L316.116 -340.236C325.768 -340.236 333.595 -333.674 333.595 -325.58V-183.556C333.593 -175.462 325.768 -168.9 316.114 -168.9Z" stroke="#34CEA5" stroke-miterlimit="10"/>
<path d="M1 0H333V126H1V0Z" fill="white" fill-opacity="0.1"/>
</svg>
