<svg height="400" viewBox="0 0 334 175" fill="none" xmlns="http://www.w3.org/2000/svg">
<path d="M315.87 173.604H18.2347C8.58287 173.604 0.755859 167.042 0.755859 158.948V31.3749C0.755859 23.2804 8.58082 16.7185 18.2347 16.7185L189.73 16.7186L202.76 0.503906L315.872 2.26753C325.524 2.26753 333.351 8.82943 333.351 16.9239V158.948C333.349 167.042 325.524 173.604 315.87 173.604Z" stroke="#7AF0D1" stroke-miterlimit="10"/>
<path d="M0.0684033 39.2019C0.0306612 27.5773 9.44368 18.1337 21.0683 18.1337H180.697C186.464 18.1337 192.39 15.4776 195.377 10.545C199.059 4.46536 205.356 1.09422 212.461 1.25039L315.713 3.51966H318.989L319.074 3.52708C322.757 3.84732 326.201 5.48363 328.776 8.13628C331.549 10.9937 333.106 14.8156 333.118 18.7976L333.537 153.791C333.573 165.414 324.161 174.856 312.537 174.856H21.252C9.65399 174.856 0.251966 165.454 0.251966 153.856V95.7391L0.0684033 39.2019Z" fill="white" fill-opacity="0.1"/>
</svg>
