<svg width="152" height="89" viewBox="0 0 152 89" fill="none" xmlns="http://www.w3.org/2000/svg">
<path d="M151.148 58.7113L147.48 39.2109C147.261 38.0443 146.103 37.2712 144.897 37.4824C143.69 37.6945 142.888 38.8119 143.108 39.9783L146.776 59.4827C147.133 61.3617 146.711 63.2631 145.587 64.8365C144.464 66.4099 142.773 67.4663 140.82 67.8127L126.517 70.4001C125.31 70.6185 124.516 71.7399 124.742 72.9051C124.941 73.937 125.874 74.6571 126.923 74.6571C127.059 74.6571 141.631 72.0339 141.631 72.0339C144.743 71.4817 147.448 69.7916 149.245 67.2743C151.043 64.7575 151.719 61.7147 151.148 58.7113Z" fill="#7AF0D1"/>
<path d="M116.037 72.2078L66.7945 80.9377C62.7762 81.6498 58.9073 79.0721 58.1701 75.1914L50.7102 35.913C49.9727 32.031 52.6412 28.2932 56.6583 27.581L130.693 14.4548C132.636 14.1102 134.605 14.5175 136.234 15.6034C137.863 16.6891 138.956 18.322 139.314 20.2011L141.204 30.1559C141.425 31.3223 142.582 32.0933 143.79 31.8801C144.997 31.666 145.796 30.5475 145.575 29.3814L143.684 19.4262C143.113 16.4192 141.363 13.8065 138.758 12.0694C136.152 10.3326 133.003 9.67976 129.89 10.2319L129.68 10.2691L129.343 8.49995C128.826 5.7751 127.241 3.40861 124.881 1.83609C122.521 0.263869 119.668 -0.326609 116.848 0.173137L40.6161 13.6869C34.7956 14.7184 30.929 20.1338 31.9971 25.7584L39.8606 67.1626C40.8089 72.1561 45.335 75.6606 50.4136 75.6606C51.0541 75.6606 51.7038 75.6047 52.3559 75.4891L53.6639 75.257L53.7987 75.966C54.846 81.4798 59.8435 85.3495 65.4515 85.3495C66.1587 85.3495 66.8762 85.288 67.5962 85.1603L116.838 76.4305C118.045 76.2164 118.844 75.0976 118.623 73.9318C118.401 72.7657 117.242 71.9932 116.037 72.2078ZM51.5539 71.2665C48.1421 71.8718 44.8574 69.6825 44.232 66.3878L36.3685 24.9838C35.7428 21.6877 38.008 18.5143 41.4184 17.9101L117.651 4.39636C119.303 4.10298 120.976 4.44931 122.358 5.37067C123.741 6.29202 124.67 7.67849 124.973 9.27533L125.309 11.0445L55.856 23.3584C49.4288 24.4976 45.1596 30.4773 46.3387 36.6881L52.8619 71.0346L51.5539 71.2665Z" fill="#7AF0D1"/>
<path d="M79.1073 47.697C79.1073 58.1567 87.9156 66.6665 98.7424 66.6665C109.569 66.6665 118.377 58.1567 118.377 47.697C118.377 37.2372 109.569 28.7275 98.7424 28.7275C87.9156 28.7275 79.1073 37.2372 79.1073 47.697ZM113.933 47.697C113.933 55.7894 107.118 62.3731 98.7424 62.3731C90.366 62.3731 83.5513 55.7894 83.5513 47.697C83.5513 39.6046 90.366 33.0209 98.7424 33.0209C107.118 33.0209 113.933 39.6046 113.933 47.697Z" fill="#7AF0D1"/>
<path d="M2.75026 61.2418L16.1498 58.0774C17.342 57.7957 18.072 56.6339 17.7807 55.4825C17.4895 54.3307 16.2867 53.6266 15.0948 53.9068L1.69496 57.0713C0.502783 57.3529 -0.227217 58.5147 0.0640124 59.6662C0.311987 60.6468 1.22064 61.3037 2.22083 61.3037C2.39533 61.3037 2.57309 61.2836 2.75026 61.2418Z" fill="#7AF0D1"/>
<path d="M32.464 77.0164L19.0645 80.1809C17.8723 80.4625 17.1423 81.6243 17.4335 82.7758C17.6815 83.7564 18.5901 84.4133 19.5903 84.4133C19.7648 84.4133 19.9426 84.3932 20.1198 84.3514L33.5193 81.1869C34.7115 80.9053 35.4415 79.7435 35.1503 78.592C34.859 77.4406 33.6562 76.7359 32.464 77.0164Z" fill="#7AF0D1"/>
<path d="M26.086 63.9815L5.24246 69.1595C4.05384 69.4549 3.33806 70.625 3.6438 71.773C3.90185 72.7419 4.80428 73.3856 5.79411 73.3856C5.9772 73.3856 6.16355 73.3636 6.34901 73.3175L27.1925 68.1394C28.3812 67.8441 29.0969 66.674 28.7912 65.5259C28.4854 64.3776 27.2737 63.6855 26.086 63.9815Z" fill="#7AF0D1"/>
<path d="M26.3396 55.838C26.509 55.838 26.6809 55.8193 26.8527 55.7798L29.6687 55.1364C30.863 54.8634 31.6021 53.707 31.3198 52.5532C31.0372 51.3995 29.8397 50.6853 28.646 50.9581L25.83 51.6015C24.6357 51.8746 23.8965 53.0309 24.1789 54.1847C24.4209 55.1725 25.3328 55.838 26.3396 55.838Z" fill="#7AF0D1"/>
<path d="M8.31533 83.1032L3.25332 84.2541C2.05877 84.5258 1.31811 85.6815 1.59926 86.8356C1.84013 87.8245 2.75263 88.4911 3.76023 88.4911C3.92881 88.4911 4.09975 88.4725 4.27099 88.4336L9.333 87.2827C10.5275 87.011 11.2682 85.8553 10.9871 84.7012C10.7059 83.5472 9.50987 82.8328 8.31533 83.1032Z" fill="#7AF0D1"/>
</svg>
