<svg  viewBox="0 0 749 37" fill="none" xmlns="http://www.w3.org/2000/svg">
<path d="M36.744 29.504H29.844L54.96 3.56H66.46V33H54.96V12.944L58.41 14.37L40.24 33H26.44L8.224 14.416L11.72 12.99V33H0.22V3.56H11.72L36.744 29.504ZM118.674 3.56L100.044 25.502V33H88.5436V25.502L69.9136 3.56H83.4836L98.6176 22.65H90.1076L105.104 3.56H118.674ZM163.748 33.92C157.063 33.92 151.681 33.3373 147.602 32.172C143.524 30.976 140.549 29.228 138.678 26.928C136.838 24.5973 135.918 21.7147 135.918 18.28C135.918 14.8453 136.838 11.978 138.678 9.678C140.549 7.34733 143.524 5.59933 147.602 4.434C151.681 3.238 157.063 2.64 163.748 2.64C170.434 2.64 175.816 3.238 179.894 4.434C183.973 5.59933 186.932 7.34733 188.772 9.678C190.643 11.978 191.578 14.8453 191.578 18.28C191.578 21.7147 190.643 24.5973 188.772 26.928C186.932 29.228 183.973 30.976 179.894 32.172C175.816 33.3373 170.434 33.92 163.748 33.92ZM163.748 25.18C166.907 25.18 169.636 24.996 171.936 24.628C174.236 24.2293 176.015 23.5393 177.272 22.558C178.53 21.546 179.158 20.12 179.158 18.28C179.158 16.44 178.53 15.0293 177.272 14.048C176.015 13.036 174.236 12.346 171.936 11.978C169.636 11.5793 166.907 11.38 163.748 11.38C160.59 11.38 157.814 11.5793 155.422 11.978C153.061 12.346 151.206 13.036 149.856 14.048C148.538 15.0293 147.878 16.44 147.878 18.28C147.878 20.12 148.538 21.546 149.856 22.558C151.206 23.5393 153.061 24.2293 155.422 24.628C157.814 24.996 160.59 25.18 163.748 25.18ZM197.562 33V3.56H233.12C235.91 3.56 238.41 3.882 240.618 4.526C242.856 5.13933 244.62 6.182 245.908 7.654C247.226 9.126 247.886 11.1347 247.886 13.68C247.886 15.3667 247.579 16.762 246.966 17.866C246.352 18.97 245.509 19.8287 244.436 20.442C243.362 21.0553 242.136 21.5 240.756 21.776C239.376 22.052 237.934 22.2207 236.432 22.282L233.074 21.638C236.723 21.6687 239.529 21.822 241.492 22.098C243.485 22.374 244.865 22.88 245.632 23.616C246.429 24.3213 246.828 25.3487 246.828 26.698V33H235.328V28.078C235.328 27.158 235.144 26.468 234.776 26.008C234.438 25.5173 233.672 25.18 232.476 24.996C231.31 24.812 229.501 24.72 227.048 24.72H209.062V33H197.562ZM209.062 17.038H233.12C234.04 17.038 234.806 16.8847 235.42 16.578C236.064 16.2713 236.386 15.6887 236.386 14.83C236.386 14.0327 236.064 13.496 235.42 13.22C234.806 12.9133 234.04 12.76 233.12 12.76H209.062V17.038ZM287.373 3.56C291.513 3.56 294.933 3.95866 297.631 4.756C300.33 5.55333 302.446 6.642 303.979 8.022C305.513 9.402 306.586 10.9813 307.199 12.76C307.843 14.508 308.165 16.348 308.165 18.28C308.165 20.212 307.813 22.0673 307.107 23.846C306.402 25.594 305.237 27.158 303.611 28.538C302.017 29.918 299.885 31.0067 297.217 31.804C294.58 32.6013 291.299 33 287.373 33H254.253V3.56H287.373ZM265.753 23.8H286.913C288.631 23.8 290.087 23.6927 291.283 23.478C292.479 23.2327 293.43 22.88 294.135 22.42C294.871 21.96 295.393 21.3927 295.699 20.718C296.037 20.0127 296.205 19.2 296.205 18.28C296.205 17.36 296.037 16.5627 295.699 15.888C295.393 15.1827 294.871 14.6 294.135 14.14C293.43 13.68 292.479 13.3427 291.283 13.128C290.087 12.8827 288.631 12.76 286.913 12.76H265.753V23.8ZM325.634 20.58V24.26H360.594V33H314.134V3.56H360.502V12.3H325.634V15.98H354.154V20.58H325.634ZM366.558 33V3.56H402.116C404.907 3.56 407.406 3.882 409.614 4.526C411.853 5.13933 413.616 6.182 414.904 7.654C416.223 9.126 416.882 11.1347 416.882 13.68C416.882 15.3667 416.575 16.762 415.962 17.866C415.349 18.97 414.505 19.8287 413.432 20.442C412.359 21.0553 411.132 21.5 409.752 21.776C408.372 22.052 406.931 22.2207 405.428 22.282L402.07 21.638C405.719 21.6687 408.525 21.822 410.488 22.098C412.481 22.374 413.861 22.88 414.628 23.616C415.425 24.3213 415.824 25.3487 415.824 26.698V33H404.324V28.078C404.324 27.158 404.14 26.468 403.772 26.008C403.435 25.5173 402.668 25.18 401.472 24.996C400.307 24.812 398.497 24.72 396.044 24.72H378.058V33H366.558ZM378.058 17.038H402.116C403.036 17.038 403.803 16.8847 404.416 16.578C405.06 16.2713 405.382 15.6887 405.382 14.83C405.382 14.0327 405.06 13.496 404.416 13.22C403.803 12.9133 403.036 12.76 402.116 12.76H378.058V17.038ZM421.639 22.19H434.197C434.412 22.834 435.041 23.386 436.083 23.846C437.126 24.2753 438.521 24.6127 440.269 24.858C442.048 25.0727 444.103 25.18 446.433 25.18C448.733 25.18 450.543 25.1187 451.861 24.996C453.211 24.8427 454.161 24.5973 454.713 24.26C455.265 23.892 455.541 23.4013 455.541 22.788C455.541 22.2053 455.097 21.7607 454.207 21.454C453.318 21.1167 451.739 20.8867 449.469 20.764C447.2 20.6413 444.011 20.58 439.901 20.58C436.835 20.58 434.182 20.442 431.943 20.166C429.735 19.8593 427.911 19.3993 426.469 18.786C425.059 18.142 424.016 17.3447 423.341 16.394C422.667 15.4127 422.329 14.2473 422.329 12.898C422.329 10.5673 423.111 8.65067 424.675 7.148C426.27 5.61466 428.662 4.48 431.851 3.744C435.071 2.97733 439.089 2.594 443.903 2.594C450.957 2.594 456.339 3.62133 460.049 5.676C463.791 7.7 465.661 10.6287 465.661 14.462H453.747C453.594 13.45 452.643 12.6833 450.895 12.162C449.147 11.61 446.663 11.334 443.443 11.334C440.254 11.334 437.877 11.518 436.313 11.886C434.78 12.254 434.013 12.8827 434.013 13.772C434.013 14.232 434.228 14.6 434.657 14.876C435.087 15.152 435.823 15.382 436.865 15.566C437.939 15.7193 439.441 15.8267 441.373 15.888C443.305 15.9493 445.759 15.98 448.733 15.98C452.015 15.98 454.805 16.1487 457.105 16.486C459.405 16.7927 461.261 17.268 462.671 17.912C464.113 18.556 465.155 19.384 465.799 20.396C466.443 21.3773 466.765 22.5427 466.765 23.892C466.765 26.2227 466.029 28.124 464.557 29.596C463.085 31.068 460.755 32.1567 457.565 32.862C454.376 33.5673 450.205 33.92 445.053 33.92C442.14 33.92 439.457 33.7513 437.003 33.414C434.581 33.0767 432.419 32.586 430.517 31.942C428.616 31.2673 427.006 30.4547 425.687 29.504C424.369 28.5227 423.357 27.434 422.651 26.238C421.977 25.0113 421.639 23.662 421.639 22.19Z" fill="#002A3F"/>
<path d="M747.787 1L702.261 35.93" stroke="#002A3F" stroke-width="2" stroke-miterlimit="10"/>
<path d="M726.059 1.00769L680.533 35.9377" stroke="#002A3F" stroke-width="2" stroke-miterlimit="10"/>
<path d="M704.33 1.00769L658.804 35.9454" stroke="#002A3F" stroke-width="2" stroke-miterlimit="10"/>
<path d="M682.613 1.01465L637.076 35.9523" stroke="#002A3F" stroke-width="2" stroke-miterlimit="10"/>
<path d="M660.885 1.02356L615.348 35.9536" stroke="#002A3F" stroke-width="2" stroke-miterlimit="10"/>
<path d="M639.157 1.03113L593.63 35.9611" stroke="#002A3F" stroke-width="2" stroke-miterlimit="10"/>
<path d="M617.429 1.03821L571.903 35.9682" stroke="#002A3F" stroke-width="2" stroke-miterlimit="10"/>
<path d="M595.711 1.04578L550.174 35.9758" stroke="#002A3F" stroke-width="2" stroke-miterlimit="10"/>
<path d="M573.983 1.05469L528.446 35.9847" stroke="#002A3F" stroke-width="2" stroke-miterlimit="10"/>
<path d="M552.255 1.05469L506.717 35.9924" stroke="#002A3F" stroke-width="2" stroke-miterlimit="10"/>
<path d="M530.526 1.06238L485 36" stroke="#002A3F" stroke-width="2" stroke-miterlimit="10"/>
</svg>
