<svg width="87" height="98" viewBox="0 0 87 98" fill="none" xmlns="http://www.w3.org/2000/svg">
<path d="M71.3477 7.65625H65.7617C65.0595 3.32511 61.1553 0 56.4586 0C55.6343 0 54.9661 0.642742 54.9661 1.43555C54.9661 2.22835 55.6343 2.87109 56.4586 2.87109C60.0047 2.87109 62.8899 5.64629 62.8899 9.05734C62.8899 10.7088 62.2209 12.2628 61.0075 13.4316C59.791 14.6001 58.1756 15.2436 56.4586 15.2436H30.5422C26.996 15.2436 24.1109 12.4684 24.1109 9.05734C24.1109 7.40589 24.7799 5.85186 25.9933 4.68314C27.2098 3.51479 28.8252 2.87109 30.5422 2.87109H50.4889C51.3131 2.87109 51.9813 2.22835 51.9813 1.43555C51.9813 0.642742 51.3131 0 50.4889 0H30.5422C28.0288 0 25.6642 0.941719 23.8827 2.65289C22.4533 4.02968 21.5416 5.77032 21.2387 7.65625H15.6525C7.02173 7.65625 0 14.4104 0 22.7123V82.944C0 91.246 7.02173 98 15.6525 98H71.3475C79.9785 98 87 91.2458 87 82.944V22.7123C87.0002 14.4104 79.9785 7.65625 71.3477 7.65625ZM53.6528 18.1147V20.0823H33.3482V18.1147H53.6528ZM53.5561 22.9534C53.2423 24.0751 52.1787 24.9042 50.9147 24.9042H36.0859C34.8221 24.9042 33.7585 24.0751 33.4445 22.9534H53.5561ZM84.0154 82.944C84.0154 89.6629 78.3326 95.1289 71.3477 95.1289H15.6527C8.66776 95.1289 2.98503 89.6627 2.98503 82.944V22.7123C2.98503 15.9933 8.66776 10.5273 15.6527 10.5273H21.2522C21.9754 14.7695 25.7721 18.0274 30.3635 18.1103V20.0823H20.5116C15.3624 20.0823 11.173 24.1111 11.173 29.0631V70.3322C11.173 71.125 11.8412 71.7678 12.6655 71.7678C13.4897 71.7678 14.1579 71.125 14.1579 70.3322V29.0631C14.1579 25.6942 17.0082 22.9534 20.5116 22.9534H30.4091C30.7599 25.6676 33.1713 27.7753 36.0863 27.7753H50.9151C53.8301 27.7753 56.2415 25.6676 56.5923 22.9534H66.3109C69.8133 22.9534 72.6626 25.6942 72.6626 29.0631V81.0739C72.6626 84.4429 69.8133 87.1836 66.3109 87.1836H20.5116C17.0082 87.1836 14.1579 84.4429 14.1579 81.0739V76.0744C14.1579 75.2816 13.4897 74.6389 12.6655 74.6389C11.8412 74.6389 11.173 75.2816 11.173 76.0744V81.0739C11.173 86.026 15.3624 90.0547 20.5116 90.0547H66.3109C71.4592 90.0547 75.6475 86.026 75.6475 81.0739V29.0631C75.6475 24.1111 71.4592 20.0823 66.3109 20.0823H56.6381V18.1105C59.0844 18.0666 61.3796 17.1322 63.1185 15.4618C64.5304 14.1019 65.4362 12.3867 65.7502 10.5273H71.3481C78.3332 10.5273 84.0158 15.9935 84.0158 22.7123V82.944H84.0154Z" fill="#7AF0D1"/>
<path d="M27 57.2603C27 58.3831 27.4372 59.4387 28.2309 60.2323L31.769 63.771C33.4076 65.4096 36.0736 65.4096 37.7124 63.771L42.9999 58.4826L48.2876 63.771C49.1068 64.5905 50.183 65 51.2592 65C52.3354 65 53.4116 64.5903 54.231 63.771L57.7691 60.2325C58.5628 59.4387 59 58.3831 59 57.2603C59 56.1377 58.5628 55.0822 57.7691 54.2883L52.4815 48.9999L57.7691 43.7117C58.5628 42.9178 59 41.8623 59 40.7397C59 39.6169 58.5628 38.5613 57.7691 37.7677L54.231 34.229C52.5924 32.5903 49.9262 32.5903 48.2876 34.229L42.9999 39.5174L37.7124 34.229C36.0738 32.5903 33.4078 32.5903 31.769 34.229L28.2309 37.7675C27.4372 38.5613 27 39.6169 27 40.7397C27 41.8623 27.4372 42.9178 28.2309 43.7117L33.5185 49.0001L28.2309 54.2883C27.4372 55.0822 27 56.1375 27 57.2603ZM30.3087 56.3662L36.635 50.0388C37.2088 49.465 37.2088 48.5346 36.635 47.961L30.3087 41.6336C30.0699 41.3948 29.9383 41.0774 29.9383 40.7397C29.9383 40.4019 30.0697 40.0844 30.3087 39.8455L33.8468 36.307C34.3398 35.8137 35.1418 35.8141 35.6348 36.307L41.9611 42.6343C42.2365 42.91 42.6103 43.0648 42.9999 43.0648C43.3895 43.0648 43.7633 42.91 44.0387 42.6343L50.3652 36.307C50.8582 35.8139 51.6602 35.8139 52.1532 36.307L55.6913 39.8457C55.9301 40.0846 56.0617 40.4019 56.0617 40.7397C56.0617 41.0774 55.9303 41.3948 55.6913 41.6336L49.365 47.961C48.7912 48.5348 48.7912 49.4652 49.365 50.0388L55.6913 56.3662C55.9301 56.605 56.0617 56.9224 56.0617 57.2601C56.0617 57.5979 55.9303 57.9154 55.6913 58.1543L52.1532 61.6928C51.6602 62.1861 50.8582 62.1857 50.3652 61.6928L44.0387 55.3655C43.7633 55.0898 43.3895 54.935 42.9999 54.935C42.6103 54.935 42.2365 55.0898 41.9611 55.3655L35.6348 61.6926C35.1418 62.1859 34.3398 62.1855 33.8468 61.6926L30.3087 58.1539C30.0699 57.915 29.9383 57.5977 29.9383 57.2599C29.9383 56.9226 30.0699 56.605 30.3087 56.3662Z" fill="#7AF0D1"/>
</svg>
