<svg width="32" height="40" viewBox="0 0 32 40" xmlns="http://www.w3.org/2000/svg">
<path d="M31.9533 33.931C27.7129 37.7062 22.1246 40 16.0005 40C9.87986 40 4.29436 37.7088 0.0548672 33.9374C0.0188648 33.6848 0.000488281 33.4224 0.000488281 33.1499C0.000488281 27.7079 7.37125 26.3479 16.0005 26.3479C24.6777 26.3479 32.0005 27.7579 32.0005 33.1979C32.0005 33.451 31.9845 33.6953 31.9533 33.931Z" fill="#7AF0D1"/>
<path d="M16.0006 21.1662C21.8788 21.1662 26.5885 16.4562 26.5885 10.5821C26.5885 4.70805 21.8788 0 16.0006 0C10.1244 0 5.4126 4.70805 5.4126 10.5821C5.4126 16.4562 10.1244 21.1662 16.0006 21.1662Z" fill="#7AF0D1"/>
</svg>
