<svg width="103" height="21" viewBox="0 0 103 21" fill="none" xmlns="http://www.w3.org/2000/svg">
<path d="M17.9278 11.69V10.524H21.1838C21.5725 10.524 21.8805 10.4213 22.1078 10.216C22.3351 10.0033 22.4488 9.71 22.4488 9.336C22.4488 8.94733 22.3351 8.65033 22.1078 8.445C21.8805 8.23967 21.5725 8.137 21.1838 8.137H18.1038V14H16.6408V6.883H21.0518C21.4478 6.883 21.8181 6.93067 22.1628 7.026C22.5148 7.12133 22.8191 7.268 23.0758 7.466C23.3398 7.664 23.5451 7.917 23.6918 8.225C23.8385 8.533 23.9118 8.90333 23.9118 9.336C23.9118 9.76133 23.8385 10.1243 23.6918 10.425C23.5451 10.7257 23.3398 10.9713 23.0758 11.162C22.8191 11.3453 22.5148 11.481 22.1628 11.569C21.8181 11.6497 21.4478 11.69 21.0518 11.69H17.9278ZM25.2888 14V6.883H30.1178C30.6678 6.883 31.1444 6.96 31.5478 7.114C31.9584 7.26067 32.2774 7.49533 32.5048 7.818C32.7321 8.13333 32.8458 8.54033 32.8458 9.039C32.8458 9.37633 32.7871 9.66233 32.6698 9.897C32.5524 10.1317 32.3874 10.3223 32.1748 10.469C31.9694 10.6157 31.7311 10.7293 31.4598 10.81C31.1884 10.8833 30.8988 10.931 30.5908 10.953L30.4368 10.865C30.9501 10.8723 31.3718 10.9163 31.7018 10.997C32.0318 11.0703 32.2774 11.2097 32.4388 11.415C32.6074 11.613 32.6918 11.91 32.6918 12.306V14H31.2288V12.405C31.2288 12.1337 31.1811 11.9247 31.0858 11.778C30.9904 11.624 30.8181 11.5177 30.5688 11.459C30.3268 11.4003 29.9748 11.371 29.5128 11.371H26.7518V14H25.2888ZM26.7518 10.227H30.1178C30.5284 10.227 30.8401 10.128 31.0528 9.93C31.2728 9.732 31.3828 9.46433 31.3828 9.127C31.3828 8.80433 31.2728 8.55867 31.0528 8.39C30.8401 8.22133 30.5284 8.137 30.1178 8.137H26.7518V10.227ZM35.8397 11.03V12.779H41.3287V14H34.3767V6.883H41.3177V8.104H35.8397V9.875H40.3277V11.03H35.8397ZM42.606 10.48H46.28V11.558H42.606V10.48ZM49.4715 6.883V12.779H54.2015V14H48.0085V6.883H49.4715ZM57.0233 11.03V12.779H62.5123V14H55.5603V6.883H62.5013V8.104H57.0233V9.875H61.5113V11.03H57.0233ZM68.0419 14.143C67.3819 14.143 66.7842 14.066 66.2489 13.912C65.7209 13.758 65.2626 13.527 64.8739 13.219C64.4926 12.911 64.1992 12.5297 63.9939 12.075C63.7886 11.6203 63.6859 11.096 63.6859 10.502C63.6859 9.90067 63.7922 9.369 64.0049 8.907C64.2249 8.43767 64.5329 8.04167 64.9289 7.719C65.3322 7.39633 65.8089 7.15433 66.3589 6.993C66.9162 6.82433 67.5322 6.74 68.2069 6.74C69.0062 6.74 69.6956 6.85367 70.2749 7.081C70.8542 7.301 71.3089 7.61267 71.6389 8.016C71.9762 8.41933 72.1669 8.89967 72.2109 9.457H70.8029C70.7076 9.16367 70.5499 8.91067 70.3299 8.698C70.1172 8.478 69.8349 8.30933 69.4829 8.192C69.1309 8.06733 68.7056 8.005 68.2069 8.005C67.5689 8.005 67.0226 8.10767 66.5679 8.313C66.1206 8.51833 65.7796 8.808 65.5449 9.182C65.3102 9.556 65.1929 9.996 65.1929 10.502C65.1929 10.9933 65.2956 11.4187 65.5009 11.778C65.7062 12.13 66.0216 12.4013 66.4469 12.592C66.8796 12.7827 67.4296 12.878 68.0969 12.878C68.6102 12.878 69.0612 12.812 69.4499 12.68C69.8459 12.5407 70.1759 12.3573 70.4399 12.13C70.7039 11.8953 70.8909 11.635 71.0009 11.349L71.5729 11.14C71.4776 12.086 71.1182 12.823 70.4949 13.351C69.8789 13.879 69.0612 14.143 68.0419 14.143ZM71.1989 14C71.1989 13.7727 71.2136 13.5123 71.2429 13.219C71.2722 12.9183 71.3089 12.6177 71.3529 12.317C71.3969 12.009 71.4372 11.7267 71.4739 11.47H68.2179V10.535H72.4639V14H71.1989ZM74.2136 6.883H75.6766V14H74.2136V6.883ZM76.944 6.883H84.446V8.104H76.944V6.883ZM79.969 7.95H81.432V14H79.969V7.95Z" fill="url(#paint0_linear)"/>
<path d="M93.5658 20H8.73023C4.26608 20 0.64801 17.6172 0.64801 14.6772V6.32279C0.64801 3.38279 4.26608 1 8.73023 1H93.5658C98.0299 1 101.648 3.38279 101.648 6.32279V10.5V14.6772C101.648 17.6172 98.0299 20 93.5658 20Z" stroke="url(#paint1_linear)" stroke-miterlimit="10"/>
<defs>
<linearGradient id="paint0_linear" x1="60.5197" y1="4" x2="60.5197" y2="15" gradientUnits="userSpaceOnUse">
<stop stop-color="#7AF0D1"/>
<stop offset="0.55" stop-color="#92F3D9"/>
<stop offset="1" stop-color="white"/>
</linearGradient>
<linearGradient id="paint1_linear" x1="51.148" y1="1" x2="51.148" y2="20" gradientUnits="userSpaceOnUse">
<stop stop-color="#7AF0D1"/>
<stop offset="1" stop-color="white"/>
</linearGradient>
</defs>
</svg>
