<svg width="14" height="14" viewBox="0 0 14 14" fill="none" xmlns="http://www.w3.org/2000/svg">
<path fill-rule="evenodd" clip-rule="evenodd" d="M6.33336 1.37211C6.37941 1.22609 6.47082 1.09854 6.5943 1.008C6.71778 0.917466 6.86691 0.868652 7.02003 0.868652C7.17315 0.868652 7.32228 0.917466 7.44576 1.008C7.56924 1.09854 7.66065 1.22609 7.7067 1.37211L8.9467 5.18545H12.9467C13.1053 5.17945 13.2615 5.22554 13.3914 5.31667C13.5213 5.4078 13.6179 5.53897 13.6662 5.69012C13.7146 5.84128 13.7122 6.00412 13.6593 6.15375C13.6064 6.30338 13.506 6.43159 13.3734 6.51878L10.1267 8.87211L11.3667 12.6921C11.4157 12.8376 11.417 12.995 11.3702 13.1413C11.3235 13.2875 11.2312 13.415 11.1068 13.5051C10.9825 13.5952 10.8326 13.6432 10.6791 13.642C10.5255 13.6409 10.3764 13.5907 10.2534 13.4988L7.00003 11.1188L3.75336 13.4788C3.63037 13.5707 3.48121 13.6209 3.32766 13.622C3.17411 13.6232 3.02422 13.5752 2.89988 13.4851C2.77553 13.395 2.68325 13.2675 2.6365 13.1213C2.58975 12.975 2.59099 12.8176 2.64003 12.6721L3.88003 8.85211L0.633363 6.49878C0.500752 6.41159 0.400331 6.28338 0.347443 6.13375C0.294556 5.98412 0.29211 5.82128 0.34048 5.67012C0.38885 5.51897 0.485375 5.3878 0.615308 5.29667C0.745241 5.20554 0.901437 5.15945 1.06003 5.16545H5.06003L6.33336 1.37211Z" fill="#FDBC15"/>
</svg>
