<svg width="16" height="15" viewBox="0 0 16 15" fill="none" xmlns="http://www.w3.org/2000/svg">
<path fill-rule="evenodd" clip-rule="evenodd" d="M7.33336 1.37211C7.37941 1.22609 7.47082 1.09854 7.5943 1.008C7.71778 0.917466 7.86691 0.868652 8.02003 0.868652C8.17315 0.868652 8.32228 0.917466 8.44576 1.008C8.56924 1.09854 8.66065 1.22609 8.7067 1.37211L9.9467 5.18545H13.9467C14.1053 5.17945 14.2615 5.22554 14.3914 5.31667C14.5213 5.4078 14.6179 5.53897 14.6662 5.69012C14.7146 5.84128 14.7122 6.00411 14.6593 6.15375C14.6064 6.30338 14.506 6.43159 14.3734 6.51878L11.1267 8.87211L12.3667 12.6921C12.4157 12.8376 12.417 12.995 12.3702 13.1413C12.3235 13.2875 12.2312 13.415 12.1068 13.5051C11.9825 13.5952 11.8326 13.6432 11.6791 13.642C11.5255 13.6409 11.3764 13.5907 11.2534 13.4988L8.00003 11.1188L4.75336 13.4788C4.63037 13.5707 4.48121 13.6209 4.32766 13.622C4.17411 13.6232 4.02422 13.5752 3.89988 13.4851C3.77553 13.395 3.68325 13.2675 3.6365 13.1213C3.58975 12.975 3.59099 12.8176 3.64003 12.6721L4.88003 8.85211L1.63336 6.49878C1.50075 6.41159 1.40033 6.28338 1.34744 6.13375C1.29456 5.98412 1.29211 5.82128 1.34048 5.67012C1.38885 5.51897 1.48538 5.3878 1.61531 5.29667C1.74524 5.20554 1.90144 5.15945 2.06003 5.16545H6.06003L7.33336 1.37211Z" stroke="#EBEBEB" stroke-width="1.5" stroke-linecap="round" stroke-linejoin="round"/>
</svg>
