<svg xmlns="http://www.w3.org/2000/svg" viewBox="0 0 395.3 31.32"><defs><style>.cls-1{fill:#7af0d1;}</style></defs><g id="Layer_2" data-name="Layer 2"><g id="acik_renk_logo" data-name="acik renk logo"><polygon class="cls-1" points="11.52 0.92 0 0.92 0 30.4 38.37 30.4 38.37 21.65 11.52 21.65 11.52 0.92"/><path class="cls-1" d="M85.63,1.77Q79.5,0,69.46,0T53.29,1.77Q47.17,3.56,44.38,7a13.37,13.37,0,0,0-2.79,8.64,13.37,13.37,0,0,0,2.79,8.64q2.79,3.48,8.91,5.25t16.17,1.77q10,0,16.17-1.77t8.91-5.25a13.37,13.37,0,0,0,2.79-8.64A13.37,13.37,0,0,0,94.54,7Q91.75,3.56,85.63,1.77ZM83,19.92A11.53,11.53,0,0,1,77.66,22a49.89,49.89,0,0,1-8.2.58A52,52,0,0,1,61.15,22a12.59,12.59,0,0,1-5.58-2.07,5,5,0,0,1-2-4.26,5,5,0,0,1,2-4.26,12.59,12.59,0,0,1,5.58-2.07,52,52,0,0,1,8.31-.58,49.89,49.89,0,0,1,8.2.58A11.53,11.53,0,0,1,83,11.4a5.12,5.12,0,0,1,1.89,4.26A5.12,5.12,0,0,1,83,19.92Z"/><path class="cls-1" d="M146.89,1.77C142.8.59,137.42,0,130.72,0s-12.08.59-16.17,1.77-7,2.94-8.91,5.25a13.37,13.37,0,0,0-2.79,8.64,13.37,13.37,0,0,0,2.79,8.64q2.79,3.48,8.91,5.25t16.17,1.77c6.7,0,12.08-.59,16.17-1.77s7.05-2.93,8.91-5.25a13.37,13.37,0,0,0,2.79-8.64A13.37,13.37,0,0,0,155.8,7Q153,3.56,146.89,1.77Zm-2.63,18.15A11.53,11.53,0,0,1,138.92,22a49.89,49.89,0,0,1-8.2.58,52,52,0,0,1-8.31-.58,12.59,12.59,0,0,1-5.58-2.07,5,5,0,0,1-2-4.26,5,5,0,0,1,2-4.26,12.59,12.59,0,0,1,5.58-2.07,52,52,0,0,1,8.31-.58,49.89,49.89,0,0,1,8.2.58,11.53,11.53,0,0,1,5.34,2.07,5.12,5.12,0,0,1,1.89,4.26A5.12,5.12,0,0,1,144.26,19.92Z"/><polygon class="cls-1" points="161.81 9.67 180.01 9.67 180.01 30.4 191.52 30.4 191.52 9.67 209.72 9.67 209.72 0.92 161.81 0.92 161.81 9.67"/><path class="cls-1" d="M272.18,1.77Q266,0,256,0T239.84,1.77Q233.72,3.56,230.93,7a13.37,13.37,0,0,0-2.79,8.64,13.37,13.37,0,0,0,2.79,8.64q2.79,3.48,8.91,5.25T256,31.32q10,0,16.17-1.77t8.91-5.25a13.37,13.37,0,0,0,2.79-8.64A13.37,13.37,0,0,0,281.09,7Q278.3,3.56,272.18,1.77Zm-2.63,18.15A11.53,11.53,0,0,1,264.21,22a50,50,0,0,1-8.2.58,52.15,52.15,0,0,1-8.32-.58,12.54,12.54,0,0,1-5.57-2.07,5,5,0,0,1-2-4.26,5,5,0,0,1,2-4.26,12.54,12.54,0,0,1,5.57-2.07A52.15,52.15,0,0,1,256,8.75a50,50,0,0,1,8.2.58,11.53,11.53,0,0,1,5.34,2.07,5.12,5.12,0,0,1,1.89,4.26A5.12,5.12,0,0,1,269.55,19.92Z"/><path class="cls-1" d="M331.27,13.59a7.87,7.87,0,0,1-1.82,5.62,9.66,9.66,0,0,1-5.18,2.65,39,39,0,0,1-7.92.71,39.53,39.53,0,0,1-8-.71,9.53,9.53,0,0,1-5.14-2.65,8,8,0,0,1-1.79-5.62V.92H289.86V15.66a14.44,14.44,0,0,0,1.41,6.66,12.36,12.36,0,0,0,3.89,4.51A19,19,0,0,0,301,29.57a39.89,39.89,0,0,0,7.25,1.36q3.92.39,8.11.39a77.5,77.5,0,0,0,7.81-.39,40.49,40.49,0,0,0,7.2-1.36,20.2,20.2,0,0,0,5.95-2.74,12.56,12.56,0,0,0,4-4.51,14.18,14.18,0,0,0,1.45-6.66V.92H331.27Z"/><polygon class="cls-1" points="395.3 0.92 347.39 0.92 347.39 9.67 365.59 9.67 365.59 30.4 377.1 30.4 377.1 9.67 395.3 9.67 395.3 0.92"/></g></g></svg>