<svg xmlns="http://www.w3.org/2000/svg" viewBox="0 0 618.41 186.63"><defs><style>.cls-1{fill:#7af0d1;}</style></defs><g id="Layer_2" data-name="Layer 2"><g id="acik_renk_logo" data-name="acik renk logo"><path class="cls-1" d="M92.17,42.56,37.5,137.26l-9.7,16.79,0,.07H156.59Zm0,42.5,27.61,47.81H64.57Z"/><polygon class="cls-1" points="135.8 53.63 111.26 53.63 175.66 165.2 200.2 165.21 135.8 53.63"/><polygon class="cls-1" points="150.97 186.63 12.21 186.63 0 165.21 138.77 165.21 150.97 186.63"/><polygon class="cls-1" points="103.99 0.01 24.75 138.74 0.03 138.74 79.28 0 103.99 0.01"/><polygon class="cls-1" points="234.63 124.01 223.11 124.01 223.11 153.49 261.48 153.49 261.48 144.74 234.63 144.74 234.63 124.01"/><path class="cls-1" d="M308.74,124.86q-6.12-1.77-16.17-1.77t-16.16,1.77q-6.14,1.77-8.92,5.25a14.82,14.82,0,0,0,0,17.28q2.79,3.47,8.92,5.25t16.16,1.77q10.05,0,16.17-1.77t8.92-5.25a14.82,14.82,0,0,0,0-17.28Q314.87,126.63,308.74,124.86ZM306.12,143a11.53,11.53,0,0,1-5.35,2.07,49.8,49.8,0,0,1-8.2.58,52,52,0,0,1-8.31-.58,12.49,12.49,0,0,1-5.57-2.07,5.52,5.52,0,0,1,0-8.52,12.49,12.49,0,0,1,5.57-2.07,52,52,0,0,1,8.31-.58,49.8,49.8,0,0,1,8.2.58,11.53,11.53,0,0,1,5.35,2.07,5.75,5.75,0,0,1,0,8.52Z"/><path class="cls-1" d="M370,124.86q-6.12-1.77-16.16-1.77t-16.17,1.77q-6.14,1.77-8.91,5.25a14.77,14.77,0,0,0,0,17.28q2.78,3.47,8.91,5.25t16.17,1.77q10,0,16.16-1.77t8.92-5.25a14.82,14.82,0,0,0,0-17.28Q376.13,126.63,370,124.86ZM367.38,143a11.53,11.53,0,0,1-5.34,2.07,50,50,0,0,1-8.2.58,52.06,52.06,0,0,1-8.32-.58A12.49,12.49,0,0,1,340,143a5.52,5.52,0,0,1,0-8.52,12.49,12.49,0,0,1,5.57-2.07,52.06,52.06,0,0,1,8.32-.58,50,50,0,0,1,8.2.58,11.53,11.53,0,0,1,5.34,2.07,5.75,5.75,0,0,1,0,8.52Z"/><polygon class="cls-1" points="384.93 132.76 403.12 132.76 403.12 153.49 414.64 153.49 414.64 132.76 432.83 132.76 432.83 124.01 384.93 124.01 384.93 132.76"/><path class="cls-1" d="M495.29,124.86q-6.12-1.77-16.17-1.77T463,124.86q-6.13,1.77-8.92,5.25a14.82,14.82,0,0,0,0,17.28q2.79,3.47,8.92,5.25t16.16,1.77q10,0,16.17-1.77t8.91-5.25a14.77,14.77,0,0,0,0-17.28Q501.41,126.63,495.29,124.86ZM492.66,143a11.49,11.49,0,0,1-5.34,2.07,49.89,49.89,0,0,1-8.2.58,52,52,0,0,1-8.31-.58,12.59,12.59,0,0,1-5.58-2.07,5.54,5.54,0,0,1,0-8.52,12.59,12.59,0,0,1,5.58-2.07,52,52,0,0,1,8.31-.58,49.89,49.89,0,0,1,8.2.58,11.49,11.49,0,0,1,5.34,2.07,5.75,5.75,0,0,1,0,8.52Z"/><path class="cls-1" d="M554.39,136.68a7.93,7.93,0,0,1-1.82,5.62,9.62,9.62,0,0,1-5.18,2.64,44.64,44.64,0,0,1-16,0,9.46,9.46,0,0,1-5.13-2.64,8,8,0,0,1-1.8-5.62V124H513v14.74a14.49,14.49,0,0,0,1.4,6.65,12.5,12.5,0,0,0,3.89,4.52,19.27,19.27,0,0,0,5.83,2.74,41.05,41.05,0,0,0,7.26,1.36q3.92.39,8.1.39a77.35,77.35,0,0,0,7.81-.39,41.52,41.52,0,0,0,7.21-1.36,20.52,20.52,0,0,0,5.94-2.74,12.5,12.5,0,0,0,4-4.52,14,14,0,0,0,1.45-6.65V124H554.39Z"/><polygon class="cls-1" points="618.41 124.01 570.51 124.01 570.51 132.76 588.7 132.76 588.7 153.49 600.22 153.49 600.22 132.76 618.41 132.76 618.41 124.01"/></g></g></svg>